<svg width="86" height="86" viewBox="0 0 86 86" fill="none" xmlns="http://www.w3.org/2000/svg">
<g clip-path="url(#clip0)">
<path d="M81.2322 48.7016C80.3198 48.5255 79.4403 49.1223 79.265 50.033C75.9261 67.3609 60.6743 79.9374 43 79.9374C25.698 79.9374 10.7179 67.8851 6.96197 51.1218L7.40037 51.5602C7.72841 51.8883 8.15824 52.0524 8.58807 52.0524C9.01791 52.0524 9.44774 51.8883 9.77561 51.5604C10.4317 50.9045 10.4317 49.8411 9.77578 49.185L6.3215 45.7305C6.00656 45.4154 5.57925 45.2384 5.1338 45.2384C4.68834 45.2384 4.26103 45.4154 3.94609 45.7305L0.491979 49.185C-0.163939 49.8409 -0.163939 50.9043 0.492147 51.5604C1.1479 52.2165 2.21164 52.2163 2.86756 51.5602L3.48938 50.9384C7.23794 69.7049 23.8101 83.2967 43 83.2967C62.2816 83.2967 78.9206 69.5747 82.5637 50.6688C82.7392 49.7579 82.1431 48.8771 81.2322 48.7016Z" fill="#11284A"/>
<path d="M85.5079 34.4397C84.8521 33.7836 83.7884 33.7837 83.1324 34.4398L82.5106 35.0616C78.7621 16.2952 62.1899 2.70331 43 2.70331C23.7184 2.70331 7.07937 16.4253 3.43629 35.3312C3.26077 36.2423 3.85689 37.123 4.76778 37.2985C5.67985 37.4737 6.55951 36.8776 6.73503 35.967C10.0741 18.6392 25.3258 6.06268 43 6.06268C60.302 6.06268 75.2821 18.1149 79.038 34.8782L78.5996 34.4398C77.9439 33.7839 76.8805 33.7837 76.2242 34.4397C75.5681 35.0956 75.5681 36.159 76.2241 36.8151L79.6782 40.2695C79.9931 40.5846 80.4204 40.7617 80.8659 40.7617C81.3113 40.7617 81.7386 40.5846 82.0536 40.2695L85.5077 36.8151C86.1641 36.1592 86.1641 35.0956 85.5079 34.4397Z" fill="#11284A"/>
<path d="M43 71.3933C58.6561 71.3933 71.3933 58.6561 71.3933 43C71.3933 27.344 58.6561 14.6068 43 14.6068C27.344 14.6068 14.6068 27.344 14.6068 43C14.6068 58.6561 27.344 71.3933 43 71.3933ZM43 17.9661C56.8039 17.9661 68.0339 29.1962 68.0339 43C68.0339 56.8039 56.8039 68.0339 43 68.0339C29.1962 68.0339 17.9661 56.8039 17.9661 43C17.9661 29.1962 29.1962 17.9661 43 17.9661Z" fill="#11284A"/>
<path d="M44.7724 50.4044C44.976 50.4855 45.186 50.5238 45.3926 50.5238C46.0604 50.5238 46.692 50.1227 46.9538 49.4643L51.6024 37.7772C51.9452 36.9152 51.5243 35.9384 50.6624 35.5956C49.8007 35.253 48.8237 35.6736 48.4808 36.5357L43.8323 48.2228C43.4895 49.0849 43.9104 50.0616 44.7724 50.4044Z" fill="#11284A"/>
<path d="M54.2645 38.8361H58.121L54.0187 48.1678C53.6454 49.017 54.0312 50.008 54.8804 50.3814C55.1005 50.4782 55.3297 50.524 55.5557 50.524C56.2017 50.5239 56.8176 50.1491 57.0941 49.5199L62.2319 37.8326C62.4602 37.3131 62.411 36.7136 62.1009 36.2386C61.7907 35.7634 61.2617 35.4771 60.6943 35.4771H54.2646C53.3371 35.4771 52.585 36.2292 52.585 37.1567C52.5848 38.0839 53.3368 38.8361 54.2645 38.8361Z" fill="#11284A"/>
<path d="M32.7636 46.2482C33.0658 46.76 33.6157 47.0739 34.21 47.0739H38.3635C38.3588 47.6931 38.354 48.2862 38.3493 48.8292C38.3414 49.7569 39.087 50.5153 40.0145 50.5234H40.0293C40.9501 50.5234 41.7006 49.7808 41.7086 48.8581C41.7125 48.4185 41.7175 47.7947 41.7233 47.065C42.5691 46.9779 43.2291 46.2632 43.2291 45.3943C43.2291 44.5329 42.5809 43.8231 41.7456 43.7258C41.7607 40.9918 41.7664 38.2393 41.7322 37.8271C41.6423 36.7469 40.9825 35.8629 40.0513 35.5743C39.1214 35.2867 38.1437 35.6338 37.4353 36.5028C36.7702 37.3187 33.9298 42.4252 32.7394 44.5828C32.4522 45.1033 32.4615 45.7364 32.7636 46.2482ZM38.3961 41.3691C38.3936 42.0945 38.3901 42.8929 38.3855 43.7146H37.067C37.5338 42.883 37.9875 42.0816 38.3961 41.3691Z" fill="#11284A"/>
<path d="M31.7476 50.6107C32.6751 50.5991 33.4175 49.8376 33.4059 48.91C33.3945 47.9897 32.6447 47.2515 31.7269 47.2515C31.7197 47.2515 31.7125 47.2515 31.7053 47.2517C30.7856 47.2631 29.8195 47.2717 28.9465 47.2759C29.5509 46.4577 30.3267 45.3855 31.3068 43.9852C32.08 42.8806 32.5854 41.8305 32.8095 40.8642C32.8646 40.6498 32.9103 40.3466 32.9108 40.0327C32.9145 37.4574 30.8157 35.3623 28.2404 35.3623C26.0138 35.3623 24.0867 36.9466 23.6577 39.1292C23.479 40.0394 24.0718 40.9223 24.9821 41.1012C25.893 41.2804 26.7754 40.6871 26.9541 39.7767C27.0742 39.1653 27.6152 38.7217 28.2404 38.7217C28.9346 38.7217 29.5044 39.2643 29.5485 39.9474L29.5191 40.1773C29.4189 40.5605 29.1688 41.1813 28.5547 42.0587C26.7075 44.6979 25.6056 46.1406 25.0137 46.9156C24.2547 47.9094 23.8366 48.4569 24.1159 49.3659C24.2804 49.9002 24.7 50.3265 25.2396 50.5066C25.4639 50.5813 25.6434 50.6411 27.9374 50.6411C28.838 50.641 30.0645 50.6319 31.7476 50.6107Z" fill="#11284A"/>
</g>
<defs>
<clipPath id="clip0">
<rect width="86" height="86" fill="white"/>
</clipPath>
</defs>
</svg>
