<svg width="81" height="81" viewBox="0 0 81 81" fill="none" xmlns="http://www.w3.org/2000/svg">
<path d="M52.5933 20.1344C51.8554 19.3972 50.8747 18.9906 49.8315 18.9906C48.7884 18.9906 47.8076 19.3972 47.0704 20.1344C46.3325 20.8723 45.9259 21.853 45.9259 22.8962C45.9259 23.9393 46.3325 24.9201 47.0698 25.6573L53.7229 32.3105C54.4602 33.0478 55.4415 33.4544 56.4847 33.4544C57.5278 33.4544 58.508 33.0478 59.2458 32.3105L73.4606 18.0957C74.1985 17.3578 74.6045 16.3771 74.6045 15.3346C74.6045 14.2914 74.1985 13.3107 73.4606 12.5728C72.7234 11.835 71.742 11.4289 70.6989 11.4289C69.6557 11.4289 68.675 11.835 67.9377 12.5728L66.3705 14.14C65.2094 13.2538 63.9351 12.5432 62.5848 12.029V10.2523C62.5848 8.09864 60.8328 6.34666 58.6798 6.34666H46.4339V4.99081C46.4339 2.23895 44.1949 0 41.443 0H27.7863C25.0344 0 22.7955 2.23895 22.7955 4.99081V10.6299C22.7955 12.1588 24.0395 13.4028 25.5683 13.4028H43.661C45.1899 13.4028 46.4339 12.1588 46.4339 10.6299V8.72342H58.6791C59.5221 8.72342 60.208 9.40938 60.208 10.2523V11.3467C59.2298 11.149 58.2286 11.0439 57.2158 11.0439C48.8922 11.0439 42.1203 17.8158 42.1203 26.1394C42.1203 34.4629 48.8922 41.2348 57.2158 41.2348C58.2311 41.2348 59.2322 41.1328 60.208 40.9369V77.095C60.208 77.9379 59.5221 78.6232 58.6791 78.6232H10.5496C9.70663 78.6232 9.02129 77.9379 9.02129 77.095V10.2523C9.02129 9.40938 9.70663 8.72342 10.5496 8.72342H18.4492C19.1055 8.72342 19.6376 8.19134 19.6376 7.53504C19.6376 6.87875 19.1055 6.34666 18.4492 6.34666H10.5496C8.39651 6.34666 6.64453 8.09864 6.64453 10.2523V77.095C6.64453 79.248 8.39651 81 10.5496 81H58.6798C60.8328 81 62.5848 79.248 62.5848 77.095V40.2497C64.477 39.5298 66.2222 38.431 67.7153 36.9855C70.5382 34.2522 72.1678 30.5876 72.3025 26.6665C72.3248 26.0108 71.8119 25.4608 71.1556 25.438C70.5042 25.4163 69.9499 25.9286 69.927 26.5849C69.7373 32.1041 66.1079 36.6611 61.1239 38.2512C61.0553 38.2672 60.9885 38.2882 60.9255 38.3161C59.7526 38.6689 58.5073 38.858 57.2158 38.858C50.2029 38.858 44.4971 33.1522 44.4971 26.1394C44.4971 19.1265 50.2029 13.4207 57.2158 13.4207C59.9095 13.4207 62.5131 14.2723 64.6729 15.8376L56.4847 24.0265L52.5933 20.1344ZM44.0571 10.6299C44.0571 10.8487 43.8797 11.026 43.661 11.026H25.5683C25.3496 11.026 25.1722 10.8487 25.1722 10.6299V4.99081C25.1722 3.54906 26.3445 2.37675 27.7863 2.37675H41.443C42.8842 2.37675 44.0571 3.54906 44.0571 4.99081V10.6299ZM69.6186 14.2537C69.9072 13.9645 70.291 13.8057 70.6989 13.8057C71.1074 13.8057 71.4911 13.9651 71.7803 14.2537C72.3761 14.8495 72.3761 15.8197 71.7803 16.4154L57.5649 30.6302C57.2763 30.9188 56.8926 31.0783 56.4841 31.0783C56.0756 31.0783 55.6918 30.9188 55.4032 30.6302L48.75 23.977C48.4614 23.6884 48.3026 23.3047 48.3026 22.8962C48.3026 22.4877 48.4614 22.1039 48.7507 21.8153C49.0393 21.5267 49.423 21.3673 49.8315 21.3673C50.2394 21.3673 50.6238 21.5267 50.9124 21.8153L55.6442 26.5472C56.1083 27.0113 56.8604 27.0113 57.3245 26.5472L69.6186 14.2537Z" fill="#77D3F5"/>
<path d="M38.9872 29.8287H24.5073C23.851 29.8287 23.3195 30.3608 23.3195 31.0171C23.3195 31.6728 23.851 32.2049 24.5073 32.2049H38.9872C39.6435 32.2049 40.1756 31.6728 40.1756 31.0171C40.1756 30.3608 39.6435 29.8287 38.9872 29.8287Z" fill="#77D3F5"/>
<path d="M22.2393 17.5624H14.2432C13.5869 17.5624 13.0549 18.0945 13.0549 18.7508C13.0549 19.4071 13.5869 19.9391 14.2432 19.9391H22.2393C22.8956 19.9391 23.4277 19.4071 23.4277 18.7508C23.4277 18.0945 22.8956 17.5624 22.2393 17.5624Z" fill="#77D3F5"/>
<path d="M24.5073 37.7178H38.9872C39.6435 37.7178 40.1756 37.1857 40.1756 36.5294C40.1756 35.8738 39.6435 35.3417 38.9872 35.3417H24.5073C23.851 35.3417 23.3195 35.8738 23.3195 36.5294C23.3195 37.1857 23.851 37.7178 24.5073 37.7178Z" fill="#77D3F5"/>
<path d="M43.9891 44.2412H24.5073C23.851 44.2412 23.3195 44.7733 23.3195 45.4296C23.3195 46.0859 23.851 46.618 24.5073 46.618H43.9891C44.6454 46.618 45.1775 46.0859 45.1775 45.4296C45.1775 44.7733 44.6454 44.2412 43.9891 44.2412Z" fill="#77D3F5"/>
<path d="M24.5073 52.131H34.2485C34.9048 52.131 35.4363 51.5989 35.4363 50.9426C35.4363 50.2864 34.9048 49.7543 34.2485 49.7543H24.5073C23.851 49.7543 23.3195 50.2864 23.3195 50.9426C23.3195 51.5989 23.851 52.131 24.5073 52.131Z" fill="#77D3F5"/>
<path d="M24.5073 61.0461H38.9872C39.6435 61.0461 40.1756 60.514 40.1756 59.8577C40.1756 59.2014 39.6435 58.6693 38.9872 58.6693H24.5073C23.851 58.6693 23.3195 59.2014 23.3195 59.8577C23.3195 60.514 23.851 61.0461 24.5073 61.0461Z" fill="#77D3F5"/>
<path d="M24.5073 66.5584H43.9891C44.6454 66.5584 45.1775 66.0263 45.1775 65.37C45.1775 64.7143 44.6454 64.1823 43.9891 64.1823H24.5073C23.851 64.1823 23.3195 64.7143 23.3195 65.37C23.3195 66.0263 23.851 66.5584 24.5073 66.5584Z" fill="#77D3F5"/>
<path d="M16.7652 28.7986C14.1184 28.7986 11.9653 30.9516 11.9653 33.5984C11.9653 36.2453 14.1184 38.3983 16.7652 38.3983C19.412 38.3983 21.5651 36.2453 21.5651 33.5984C21.5651 30.9516 19.412 28.7986 16.7652 28.7986ZM16.7652 36.0215C15.4291 36.0215 14.3421 34.9345 14.3421 33.5984C14.3421 32.2624 15.4291 31.1753 16.7652 31.1753C18.1013 31.1753 19.1883 32.2624 19.1883 33.5984C19.1883 34.9345 18.1013 36.0215 16.7652 36.0215Z" fill="#77D3F5"/>
<path d="M16.7652 43.386C14.1184 43.386 11.9653 45.5396 11.9653 48.1858C11.9653 50.8327 14.1184 52.9857 16.7652 52.9857C19.412 52.9857 21.5651 50.8327 21.5651 48.1858C21.5651 45.5396 19.412 43.386 16.7652 43.386ZM16.7652 50.6096C15.4291 50.6096 14.3421 49.5225 14.3421 48.1865C14.3421 46.8498 15.4291 45.7627 16.7652 45.7627C18.1013 45.7627 19.1883 46.8498 19.1883 48.1865C19.1883 49.5225 18.1013 50.6096 16.7652 50.6096Z" fill="#77D3F5"/>
<path d="M16.7652 57.814C14.1184 57.814 11.9653 59.967 11.9653 62.6138C11.9653 65.2606 14.1184 67.4137 16.7652 67.4137C19.412 67.4137 21.5651 65.2606 21.5651 62.6138C21.5651 59.967 19.412 57.814 16.7652 57.814ZM16.7652 65.0369C15.4291 65.0369 14.3421 63.9499 14.3421 62.6138C14.3421 61.2777 15.4291 60.1907 16.7652 60.1907C18.1013 60.1907 19.1883 61.2777 19.1883 62.6138C19.1883 63.9499 18.1013 65.0369 16.7652 65.0369Z" fill="#77D3F5"/>
</svg>
