<svg width="50" height="50" viewBox="0 0 50 50" fill="none" xmlns="http://www.w3.org/2000/svg">
<path d="M32.465 12.4287C32.0095 11.9736 31.4041 11.7226 30.7602 11.7226C30.1163 11.7226 29.5109 11.9736 29.0558 12.4287C28.6003 12.8841 28.3493 13.4895 28.3493 14.1335C28.3493 14.7774 28.6003 15.3828 29.0554 15.8379L33.1623 19.9448C33.6174 20.3999 34.2232 20.6509 34.8671 20.6509C35.511 20.6509 36.116 20.3999 36.5715 19.9448L45.3461 11.1702C45.8015 10.7147 46.0522 10.1093 46.0522 9.46579C46.0522 8.82187 45.8015 8.21648 45.3461 7.761C44.891 7.30553 44.2852 7.0549 43.6413 7.0549C42.9974 7.0549 42.392 7.30553 41.9369 7.761L40.9695 8.72841C40.2527 8.18138 39.4661 7.74269 38.6326 7.42531V6.32858C38.6326 4.99916 37.5511 3.91769 36.2221 3.91769H28.6629V3.08075C28.6629 1.38206 27.2808 0 25.5821 0H17.152C15.4533 0 14.0713 1.38206 14.0713 3.08075V6.56166C14.0713 7.50542 14.8392 8.27332 15.7829 8.27332H26.9512C27.895 8.27332 28.6629 7.50542 28.6629 6.56166V5.38483H36.2217C36.742 5.38483 37.1655 5.80826 37.1655 6.32858V7.00417C36.5616 6.8821 35.9436 6.81725 35.3184 6.81725C30.1804 6.81725 26.0002 10.9974 26.0002 16.1354C26.0002 21.2734 30.1804 25.4536 35.3184 25.4536C35.9451 25.4536 36.5631 25.3906 37.1655 25.2697V47.5895C37.1655 48.1098 36.742 48.5329 36.2217 48.5329H6.51207C5.99174 48.5329 5.5687 48.1098 5.5687 47.5895V6.32858C5.5687 5.80826 5.99174 5.38483 6.51207 5.38483H11.3884C11.7935 5.38483 12.122 5.05638 12.122 4.65126C12.122 4.24614 11.7935 3.91769 11.3884 3.91769H6.51207C5.18303 3.91769 4.10156 4.99916 4.10156 6.32858V47.5895C4.10156 48.9185 5.18303 50 6.51207 50H36.2221C37.5511 50 38.6326 48.9185 38.6326 47.5895V24.8455C39.8006 24.4011 40.8779 23.7228 41.7995 22.8306C43.5421 21.1433 44.548 18.8812 44.6312 16.4608C44.6449 16.0561 44.3283 15.7166 43.9232 15.7024C43.5211 15.6891 43.1789 16.0053 43.1648 16.4104C43.0477 19.8174 40.8073 22.6303 37.7308 23.6118C37.6884 23.6217 37.6472 23.6347 37.6083 23.6519C36.8843 23.8697 36.1156 23.9864 35.3184 23.9864C30.9895 23.9864 27.4673 20.4643 27.4673 16.1354C27.4673 11.8065 30.9895 8.28438 35.3184 8.28438C36.9812 8.28438 38.5883 8.81004 39.9216 9.77631L34.8671 14.8312L32.465 12.4287ZM27.1957 6.56166C27.1957 6.6967 27.0863 6.80618 26.9512 6.80618H15.7829C15.6479 6.80618 15.5384 6.6967 15.5384 6.56166V3.08075C15.5384 2.19078 16.2621 1.46713 17.152 1.46713H25.5821C26.4717 1.46713 27.1957 2.19078 27.1957 3.08075V6.56166ZM42.9745 8.7986C43.1526 8.62007 43.3895 8.52203 43.6413 8.52203C43.8934 8.52203 44.1303 8.62045 44.3089 8.7986C44.6766 9.16634 44.6766 9.76524 44.3089 10.133L35.5339 18.9075C35.3558 19.0857 35.1189 19.1841 34.8667 19.1841C34.6146 19.1841 34.3777 19.0857 34.1995 18.9075L30.0926 14.8006C29.9145 14.6225 29.8164 14.3856 29.8164 14.1335C29.8164 13.8813 29.9145 13.6444 30.093 13.4663C30.2711 13.2881 30.508 13.1897 30.7602 13.1897C31.012 13.1897 31.2492 13.2881 31.4274 13.4663L34.3483 16.3872C34.6348 16.6737 35.099 16.6737 35.3855 16.3872L42.9745 8.7986Z" fill="white"/>
<path d="M24.0661 18.4128H15.1279C14.7228 18.4128 14.3947 18.7412 14.3947 19.1463C14.3947 19.5511 14.7228 19.8795 15.1279 19.8795H24.0661C24.4713 19.8795 24.7997 19.5511 24.7997 19.1463C24.7997 18.7412 24.4713 18.4128 24.0661 18.4128Z" fill="white"/>
<path d="M13.728 10.841H8.79213C8.38701 10.841 8.05856 11.1694 8.05856 11.5746C8.05856 11.9797 8.38701 12.3081 8.79213 12.3081H13.728C14.1331 12.3081 14.4615 11.9797 14.4615 11.5746C14.4615 11.1694 14.1331 10.841 13.728 10.841Z" fill="white"/>
<path d="M15.1279 23.2826H24.0661C24.4713 23.2826 24.7997 22.9542 24.7997 22.5491C24.7997 22.1443 24.4713 21.8159 24.0661 21.8159H15.1279C14.7228 21.8159 14.3947 22.1443 14.3947 22.5491C14.3947 22.9542 14.7228 23.2826 15.1279 23.2826Z" fill="white"/>
<path d="M27.1538 27.3094H15.1279C14.7228 27.3094 14.3947 27.6379 14.3947 28.043C14.3947 28.4481 14.7228 28.7766 15.1279 28.7766H27.1538C27.5589 28.7766 27.8873 28.4481 27.8873 28.043C27.8873 27.6379 27.5589 27.3094 27.1538 27.3094Z" fill="white"/>
<path d="M15.1279 32.1796H21.141C21.5462 32.1796 21.8742 31.8512 21.8742 31.4461C21.8742 31.041 21.5462 30.7125 21.141 30.7125H15.1279C14.7228 30.7125 14.3947 31.041 14.3947 31.4461C14.3947 31.8512 14.7228 32.1796 15.1279 32.1796Z" fill="white"/>
<path d="M15.1279 37.6827H24.0661C24.4713 37.6827 24.7997 37.3543 24.7997 36.9492C24.7997 36.544 24.4713 36.2156 24.0661 36.2156H15.1279C14.7228 36.2156 14.3947 36.544 14.3947 36.9492C14.3947 37.3543 14.7228 37.6827 15.1279 37.6827Z" fill="white"/>
<path d="M15.1279 41.0854H27.1538C27.5589 41.0854 27.8873 40.757 27.8873 40.3519C27.8873 39.9471 27.5589 39.6187 27.1538 39.6187H15.1279C14.7228 39.6187 14.3947 39.9471 14.3947 40.3519C14.3947 40.757 14.7228 41.0854 15.1279 41.0854Z" fill="white"/>
<path d="M10.3489 17.7769C8.71506 17.7769 7.38602 19.1059 7.38602 20.7397C7.38602 22.3736 8.71506 23.7026 10.3489 23.7026C11.9827 23.7026 13.3118 22.3736 13.3118 20.7397C13.3118 19.1059 11.9827 17.7769 10.3489 17.7769ZM10.3489 22.2355C9.52416 22.2355 8.85315 21.5645 8.85315 20.7397C8.85315 19.915 9.52416 19.244 10.3489 19.244C11.1736 19.244 11.8446 19.915 11.8446 20.7397C11.8446 21.5645 11.1736 22.2355 10.3489 22.2355Z" fill="white"/>
<path d="M10.3489 26.7815C8.71506 26.7815 7.38602 28.1109 7.38602 29.7443C7.38602 31.3782 8.71506 32.7072 10.3489 32.7072C11.9827 32.7072 13.3118 31.3782 13.3118 29.7443C13.3118 28.1109 11.9827 26.7815 10.3489 26.7815ZM10.3489 31.2405C9.52416 31.2405 8.85315 30.5695 8.85315 29.7447C8.85315 28.9196 9.52416 28.2486 10.3489 28.2486C11.1736 28.2486 11.8446 28.9196 11.8446 29.7447C11.8446 30.5695 11.1736 31.2405 10.3489 31.2405Z" fill="white"/>
<path d="M10.3489 35.6876C8.71506 35.6876 7.38602 37.0167 7.38602 38.6505C7.38602 40.2844 8.71506 41.6134 10.3489 41.6134C11.9827 41.6134 13.3118 40.2844 13.3118 38.6505C13.3118 37.0167 11.9827 35.6876 10.3489 35.6876ZM10.3489 40.1463C9.52416 40.1463 8.85315 39.4753 8.85315 38.6505C8.85315 37.8258 9.52416 37.1548 10.3489 37.1548C11.1736 37.1548 11.8446 37.8258 11.8446 38.6505C11.8446 39.4753 11.1736 40.1463 10.3489 40.1463Z" fill="white"/>
</svg>
