<svg width="13" height="13" viewBox="0 0 13 13" fill="none" xmlns="http://www.w3.org/2000/svg">
<path d="M12.125 6.4184C12.1271 7.24332 11.9344 8.05708 11.5625 8.7934C11.1215 9.67574 10.4436 10.4179 9.60465 10.9367C8.76572 11.4555 7.7989 11.7305 6.8125 11.7309C5.98758 11.733 5.17382 11.5403 4.4375 11.1684L0.875 12.3559L2.0625 8.7934C1.69058 8.05708 1.49785 7.24332 1.5 6.4184C1.50038 5.432 1.77538 4.46518 2.2942 3.62624C2.81302 2.7873 3.55516 2.10938 4.4375 1.6684C5.17382 1.29648 5.98758 1.10375 6.8125 1.1059H7.125C8.42772 1.17777 9.65815 1.72762 10.5807 2.65019C11.5033 3.57275 12.0531 4.80318 12.125 6.1059V6.4184Z" stroke="#77D3F5" stroke-linecap="round" stroke-linejoin="round"/>
</svg>
