<svg width="50" height="50" viewBox="0 0 50 50" fill="none" xmlns="http://www.w3.org/2000/svg">
<path d="M14.643 9.92253L11.7235 6.99695C11.0462 6.31833 10.1454 5.9447 9.18666 5.9447C8.22797 5.9447 7.32709 6.31843 6.64994 6.99695L4.53363 9.11784C3.14056 10.5136 3.14056 12.7849 4.53363 14.1808L7.45932 17.1126C7.74545 17.3993 8.12074 17.5426 8.49623 17.5426C8.87055 17.5426 9.24506 17.4 9.531 17.1147C10.1037 16.5432 14.0691 12.5648 14.641 11.9941C15.2135 11.4227 15.2145 10.4953 14.643 9.92253Z" fill="#105C6E"/>
<path d="M25 0.292969C24.191 0.292969 23.5352 0.948828 23.5352 1.75781V6.44531C23.5352 7.2543 24.191 7.91016 25 7.91016C25.809 7.91016 26.4648 7.2543 26.4648 6.44531V1.75781C26.4648 0.948828 25.809 0.292969 25 0.292969Z" fill="#26879C"/>
<path d="M28.6133 0H21.3867C20.5777 0 19.9219 0.655859 19.9219 1.46484C19.9219 2.27383 20.5777 2.92969 21.3867 2.92969H28.6133C29.4223 2.92969 30.0781 2.27383 30.0781 1.46484C30.0781 0.655859 29.4223 0 28.6133 0Z" fill="#DE513C"/>
<path d="M25 0H21.3867C20.5777 0 19.9219 0.655859 19.9219 1.46484C19.9219 2.27383 20.5777 2.92969 21.3867 2.92969H25V0Z" fill="#FC6249"/>
<path d="M40.8833 11.5835C36.6409 7.33228 31.0001 4.99097 25 4.99097C18.9999 4.99097 13.3591 7.33228 9.11672 11.5835C4.87512 15.8338 2.53918 21.4849 2.53918 27.4955C2.53918 33.506 4.87512 39.1571 9.11672 43.4075C13.3591 47.6587 18.9999 50 25 50C31.0001 50 36.6409 47.6587 40.8833 43.4075C45.1249 39.1571 47.4609 33.506 47.4609 27.4955C47.4609 21.4849 45.1249 15.8338 40.8833 11.5835Z" fill="#DE513C"/>
<path d="M25 4.99097C18.9999 4.99097 13.3591 7.33228 9.11672 11.5835C4.87512 15.8338 2.53918 21.4849 2.53918 27.4955C2.53918 33.506 4.87512 39.1571 9.11672 43.4075C13.3591 47.6587 18.9999 50 25 50V4.99097Z" fill="#FC6249"/>
<path d="M25 10.5995C15.7014 10.5995 8.13635 18.179 8.13635 27.4955C8.13635 36.812 15.7014 44.3916 25 44.3916C34.2987 44.3916 41.8637 36.812 41.8637 27.4955C41.8637 18.179 34.2987 10.5995 25 10.5995Z" fill="#96D1D9"/>
<path d="M25 10.5995C15.7014 10.5995 8.13635 18.179 8.13635 27.4955C8.13635 36.812 15.7014 44.3916 25 44.3916V10.5995Z" fill="#F4F2E6"/>
<path d="M25 14.2585C25.809 14.2585 26.4648 13.6026 26.4648 12.7936V10.6639C25.9819 10.6221 25.4936 10.5995 25 10.5995C24.5064 10.5995 24.0181 10.6221 23.5352 10.6639V12.7936C23.5352 13.6026 24.191 14.2585 25 14.2585Z" fill="#105C6E"/>
<path d="M25 40.7324C24.191 40.7324 23.5352 41.3883 23.5352 42.1973V44.3269C24.0181 44.3687 24.5064 44.3914 25 44.3914C25.4936 44.3914 25.9819 44.3687 26.4648 44.3269V42.1973C26.4648 41.3883 25.809 40.7324 25 40.7324Z" fill="#105C6E"/>
<path d="M41.7997 26.0308H39.7019C38.8929 26.0308 38.2371 26.6866 38.2371 27.4956C38.2371 28.3046 38.8929 28.9604 39.7019 28.9604H41.7997C41.8413 28.4775 41.8637 27.9892 41.8637 27.4956C41.8637 27.0021 41.8413 26.5137 41.7997 26.0308Z" fill="#105C6E"/>
<path d="M11.763 27.4956C11.763 26.6866 11.1072 26.0308 10.2982 26.0308H8.20041C8.15881 26.5137 8.13635 27.0021 8.13635 27.4956C8.13635 27.9892 8.15881 28.4775 8.20041 28.9604H10.2982C11.1072 28.9604 11.763 28.3046 11.763 27.4956Z" fill="#105C6E"/>
<path d="M28.6133 26.6501H26.5467V20.7256C26.5467 19.9166 25.8908 19.2607 25.0818 19.2607C24.2729 19.2607 23.617 19.9166 23.617 20.7256V28.115C23.617 28.9239 24.2729 29.5798 25.0818 29.5798H28.6133C29.4223 29.5798 30.0781 28.9239 30.0781 28.115C30.0781 27.306 29.4223 26.6501 28.6133 26.6501Z" fill="#105C6E"/>
</svg>
