<svg width="50" height="50" viewBox="0 0 50 50" fill="none" xmlns="http://www.w3.org/2000/svg">
<path d="M25 0C11.2144 0 0 11.2144 0 25C0 38.7856 11.2144 50 25 50C38.7856 50 50 38.7856 50 25C50 11.2144 38.7856 0 25 0ZM36.8896 37.9311C36.4834 38.3373 35.9501 38.5418 35.4168 38.5418C34.8835 38.5418 34.3498 38.3373 33.9439 37.9311L23.5271 27.5146C23.1354 27.1252 22.9168 26.5957 22.9168 26.0418V12.5C22.9168 11.348 23.8499 10.4168 25 10.4168C26.1501 10.4168 27.0832 11.348 27.0832 12.5V25.1793L36.8896 34.9854C37.7041 35.8002 37.7041 37.1166 36.8896 37.9311Z" fill="#77D3F5"/>
</svg>
