<svg width="50" height="50" viewBox="0 0 50 50" fill="none" xmlns="http://www.w3.org/2000/svg">
<path d="M47.8514 26.4224C46.4815 24.9746 44.6311 24.1005 42.6398 23.9605L42.1597 23.9136C42.136 23.9114 42.1123 23.9102 42.0885 23.9102C41.3454 23.9102 40.5965 24.0283 39.8114 24.2703L39.2435 23.7024C39.6563 22.671 39.433 21.4669 38.6218 20.6558L38.5254 20.5585C37.9431 19.976 37.1604 19.6951 36.386 19.7321C36.4234 18.9574 36.142 18.1758 35.5605 17.5936L35.4665 17.4995C34.8839 16.9177 34.101 16.6365 33.3274 16.6739C33.3649 15.899 33.0835 15.1174 32.5019 14.535L32.4079 14.4409C31.8257 13.8595 31.0435 13.5786 30.2692 13.6157C30.3067 12.8401 30.0245 12.0575 29.4408 11.4739L29.3491 11.383C28.5335 10.5663 27.3263 10.3431 26.2969 10.7579L25.7306 10.1921C25.9724 9.41291 26.0906 8.66359 26.0906 7.91427C26.0906 7.89191 26.0896 7.86964 26.0876 7.84738L26.0433 7.36515C25.9643 6.23907 25.655 5.16466 25.1242 4.17149C24.9335 3.81466 24.4896 3.68018 24.133 3.87081C23.7762 4.06143 23.6417 4.50528 23.8323 4.86192C24.2664 5.67403 24.5188 6.55294 24.5826 7.47443C24.583 7.4799 24.5834 7.48527 24.5839 7.49074L24.6256 7.9466C24.6215 8.65353 24.4833 9.37062 24.2033 10.1377C24.1056 10.4054 24.172 10.7054 24.3736 10.907L25.099 11.6318L21.9087 14.8224L21.1836 14.0974C20.9813 13.8951 20.6798 13.8289 20.4114 13.9285C19.6601 14.2068 18.9411 14.3443 18.2149 14.3487L17.7728 14.3045C17.7656 14.3038 17.7584 14.3032 17.7511 14.3027C14.3831 14.0711 11.7448 11.265 11.7448 7.91418C11.7448 7.31603 11.8309 6.72335 12.0017 6.14279L15.9731 10.1061C16.262 10.4073 16.6275 10.6397 17.0831 10.8135C17.4407 10.9541 17.8094 11.0255 18.1793 11.0255C19.0147 11.0255 19.7993 10.701 20.3828 10.1176C21.2405 9.27931 21.526 7.98673 21.1102 6.82462C21.1052 6.81066 21.1 6.79708 21.0941 6.78351C20.9682 6.48898 20.7579 6.05675 20.3833 5.6964L16.4163 1.72705C16.9936 1.55274 17.5833 1.46485 18.1792 1.46485C19.6458 1.46485 21.0248 1.94766 22.1671 2.86114C22.4832 3.11378 22.944 3.06251 23.1966 2.74649C23.4492 2.43057 23.3979 1.96973 23.082 1.71709C21.6771 0.593751 19.9818 0 18.1792 0C17.0155 0 15.8749 0.26836 14.789 0.797755C14.5763 0.901467 14.4268 1.10156 14.3876 1.33506C14.3486 1.56846 14.4247 1.80635 14.5919 1.97383L19.3527 6.73751C19.3568 6.74161 19.3609 6.74562 19.3651 6.74962C19.5035 6.88175 19.6189 7.06369 19.7379 7.3379C19.9514 7.95734 19.8036 8.63517 19.3529 9.0758C19.0402 9.3884 18.6234 9.56057 18.1792 9.56057C17.9937 9.56057 17.8053 9.52346 17.6122 9.44758C17.3545 9.34924 17.1632 9.23195 17.0274 9.08908C17.023 9.08439 17.0185 9.0798 17.014 9.07531L12.2406 4.31163C12.0722 4.14356 11.8328 4.06798 11.5985 4.10831C11.3642 4.14884 11.164 4.30059 11.0619 4.51524C10.5429 5.60548 10.2798 6.74904 10.2798 7.91408C10.2798 9.92844 11.0411 11.8423 12.4234 13.3032C13.5392 14.4824 14.976 15.2804 16.5495 15.6111C15.9939 16.9031 16.209 18.4579 17.187 19.5442L15.4867 21.2446C14.8518 21.8789 14.5021 22.7224 14.5021 23.6198C14.5021 24.4503 14.8016 25.235 15.3491 25.85L12.7114 28.4877L11.1345 26.9108C10.8486 26.6249 10.3848 26.6249 10.0988 26.9108L6.16214 30.8463C6.16038 30.8481 6.15892 30.8501 6.15726 30.8518L0.215839 36.7934C-0.0701967 37.0796 -0.0701967 37.5432 0.215839 37.8293L4.78284 42.3963C5.06888 42.6822 5.53265 42.6822 5.81858 42.3963C6.10462 42.1101 6.10462 41.6465 5.81858 41.3604L1.76955 37.3114L7.25492 31.826L18.1754 42.7466L12.6901 48.2319L7.85902 43.4008C7.57308 43.1148 7.10931 43.1148 6.82327 43.4008C6.53724 43.6869 6.53724 44.1506 6.82327 44.4366L12.1722 49.7855C12.3095 49.9229 12.4958 50 12.6901 50C12.8843 50 13.0706 49.9229 13.208 49.7855L19.1457 43.8479C19.149 43.8448 19.1525 43.8421 19.1557 43.8389L23.0908 39.9027C23.2282 39.7653 23.3053 39.5791 23.3053 39.3847C23.3053 39.1904 23.2282 39.0043 23.0908 38.8668L21.8909 37.6669L24.5799 34.9771C25.7256 35.7109 27.218 35.6883 28.3593 34.8552C28.686 34.6168 28.7575 34.1586 28.519 33.8319C28.2805 33.5052 27.8223 33.4336 27.4957 33.6721C26.7384 34.2248 25.7066 34.1437 25.0421 33.4791C24.9047 33.3418 24.7184 33.2646 24.5241 33.2646C24.3298 33.2646 24.1435 33.3419 24.0061 33.4792L20.855 36.631L13.7474 29.5234L16.8984 26.3723C17.1841 26.0865 17.1844 25.6233 16.8991 25.3372L16.5224 24.9594C16.1643 24.6014 15.9671 24.1255 15.9671 23.6196C15.9671 23.1136 16.1643 22.6381 16.5224 22.2804L18.7345 20.068C18.7354 20.0671 18.7364 20.0664 18.7373 20.0656C18.7381 20.0647 18.7388 20.0637 18.7397 20.0628L22.4217 16.3804C22.4233 16.3788 22.4251 16.3775 22.4267 16.3759C22.4284 16.3743 22.4296 16.3726 22.4312 16.3709L26.384 12.4179C26.4432 12.3586 26.5063 12.3061 26.5764 12.2584C27.117 11.8848 27.8471 11.9517 28.3155 12.4206L28.4076 12.5118C28.8734 12.9777 28.9404 13.7085 28.5663 14.2505C28.5206 14.3169 28.4678 14.3801 28.4099 14.4383C28.4091 14.4392 28.4081 14.44 28.4072 14.4408L24.0465 18.8015C23.7605 19.0876 23.7605 19.5513 24.0465 19.8373C24.1895 19.9803 24.377 20.0518 24.5644 20.0518C24.7518 20.0518 24.9393 19.9803 25.0823 19.8373L29.4392 15.4803C29.4405 15.479 29.4419 15.478 29.4431 15.4768C29.5021 15.4178 29.5664 15.3643 29.6344 15.3174C30.1753 14.9442 30.9062 15.0114 31.3722 15.4767L31.4657 15.5701C31.9312 16.0362 31.9983 16.7669 31.6222 17.3119C31.5782 17.3769 31.5257 17.4399 31.4662 17.4993C31.4661 17.4994 31.4659 17.4994 31.4658 17.4995L27.1052 21.8601C26.8192 22.1462 26.8192 22.6099 27.1052 22.8959C27.2482 23.0389 27.4357 23.1104 27.6231 23.1104C27.8105 23.1104 27.998 23.0389 28.141 22.8959L32.5014 18.5356C32.5015 18.5354 32.5016 18.5353 32.5018 18.5351C32.5613 18.4756 32.6244 18.4231 32.6939 18.3758C33.2345 18.0029 33.9651 18.07 34.4309 18.5351L34.5243 18.6285C34.9898 19.0946 35.057 19.8252 34.6808 20.3703C34.6367 20.4353 34.5842 20.4985 34.5246 20.5581C34.5236 20.559 34.5228 20.5601 34.522 20.561L30.164 24.9188C29.878 25.2049 29.878 25.6686 30.164 25.9546C30.307 26.0976 30.4945 26.1691 30.6819 26.1691C30.8693 26.1691 31.0568 26.0976 31.1998 25.9546L35.5604 21.5941C35.5611 21.5934 35.5618 21.5925 35.5625 21.5918C35.6214 21.5331 35.6838 21.4812 35.7525 21.4344C36.2933 21.0612 37.0239 21.1279 37.4869 21.5911L37.5833 21.6884C38.0483 22.1535 38.1155 22.8838 37.743 23.4251C37.6945 23.4956 37.6423 23.5584 37.5833 23.6174L29.473 31.7278C29.187 32.0138 29.1869 32.4775 29.4729 32.7635C29.6159 32.9066 29.8034 32.9781 29.9909 32.9781C30.1783 32.9781 30.3657 32.9066 30.5088 32.7636L34.1437 29.1287L34.5472 29.532C34.3094 30.2923 34.1891 31.0612 34.1891 31.8238C34.1891 31.8466 34.1902 31.8696 34.1924 31.8923L34.2365 32.3611C34.3761 34.357 35.2497 36.2097 36.6971 37.5793C38.1583 38.9618 40.073 39.7232 42.0886 39.7232C43.2478 39.7232 44.3899 39.4599 45.4838 38.9406C45.6987 38.8386 45.8507 38.6385 45.8913 38.4041C45.932 38.1697 45.8563 37.9301 45.6882 37.7617L40.9245 32.9863C40.9212 32.9831 40.918 32.9799 40.9146 32.9765C40.7205 32.7892 40.6162 32.5664 40.5629 32.4124C40.5611 32.4073 40.5593 32.4022 40.5574 32.3972C40.3247 31.7701 40.4637 31.1011 40.9222 30.6491C41.2384 30.3349 41.6525 30.1619 42.0885 30.1619C42.2785 30.1619 42.4644 30.1982 42.6407 30.2699C42.6466 30.2722 42.6525 30.2747 42.6584 30.2768C42.9251 30.3773 43.1128 30.4908 43.2489 30.6341C43.2532 30.6386 43.2576 30.6431 43.262 30.6475L48.0267 35.4111C48.1941 35.5787 48.4326 35.655 48.6661 35.6154C48.8998 35.5761 49.0999 35.4261 49.2034 35.2131C49.7318 34.1247 49.9996 32.9845 49.9996 31.8239C49.9996 29.805 49.2367 27.8867 47.8514 26.4224ZM20.3368 38.1846C20.3369 38.1847 20.3371 38.1849 20.3372 38.1851C20.3373 38.1853 20.3375 38.1854 20.3377 38.1855L21.5371 39.3849L19.2115 41.711L8.29056 30.7901L10.6166 28.4645L12.1931 30.041C12.1933 30.0412 12.1934 30.0414 12.1936 30.0416C12.1938 30.0418 12.194 30.0419 12.1942 30.0421L20.3368 38.1846ZM18.226 18.5052C17.5831 17.7387 17.5421 16.6218 18.1082 15.81C18.1318 15.8122 18.1555 15.8135 18.1792 15.8135C18.9338 15.8135 19.7024 15.6932 20.4698 15.4553L20.8727 15.8582L18.226 18.5052ZM48.2728 33.5862L44.3037 29.618C44.0166 29.3184 43.6499 29.0866 43.1834 28.9096C42.8336 28.7688 42.4652 28.6973 42.0885 28.6973C41.263 28.6973 40.482 29.0215 39.8917 29.6083C39.0343 30.4535 38.7559 31.7447 39.1813 32.8998C39.3322 33.3318 39.5777 33.7208 39.892 34.0258L43.8571 38.0008C43.2756 38.1722 42.684 38.2588 42.0886 38.2588C38.7362 38.2588 35.9287 35.62 35.6972 32.2514C35.6968 32.2453 35.6963 32.2392 35.6956 32.2331L35.654 31.7908C35.6582 31.0641 35.7994 30.3257 36.0739 29.5956C36.1751 29.3265 36.1095 29.0233 35.9062 28.82L35.1796 28.0933L38.3714 24.9016L39.0961 25.6264C39.2969 25.8272 39.5955 25.8939 39.8626 25.7975C40.6375 25.5179 41.3548 25.3796 42.054 25.3752L42.5076 25.4196C42.5145 25.4203 42.5215 25.4209 42.5284 25.4213C45.8966 25.6537 48.5349 28.4663 48.5349 31.8244C48.5348 32.4186 48.4469 33.0082 48.2728 33.5862Z" fill="white"/>
</svg>
