<svg width="81" height="81" viewBox="0 0 81 81" fill="none" xmlns="http://www.w3.org/2000/svg">
<path d="M77.5184 42.8043C75.2993 40.4588 72.3015 39.0429 69.0757 38.816L68.2979 38.7401C68.2596 38.7364 68.2211 38.7345 68.1825 38.7345C66.9788 38.7345 65.7655 38.9258 64.4937 39.3178L63.5737 38.3979C64.2425 36.7271 63.8806 34.7764 62.5665 33.4624L62.4103 33.3048C61.4669 32.3611 60.1991 31.906 58.9445 31.966C59.0051 30.7109 58.5492 29.4448 57.6073 28.5016L57.4549 28.3493C56.5111 27.4067 55.2427 26.9511 53.9896 27.0117C54.0504 25.7563 53.5944 24.4902 52.6523 23.5467L52.5 23.3943C51.5568 22.4524 50.2897 21.9974 49.0353 22.0574C49.0961 20.8009 48.6389 19.5332 47.6933 18.5876L47.5447 18.4405C46.2234 17.1175 44.2679 16.7558 42.6002 17.4278L41.6828 16.5112C42.0745 15.2489 42.2659 14.035 42.2659 12.8211C42.2659 12.7849 42.2644 12.7488 42.261 12.7128L42.1894 11.9315C42.0614 10.1073 41.5604 8.36675 40.7004 6.75782C40.3914 6.17974 39.6724 5.9619 39.0946 6.27071C38.5167 6.57952 38.2987 7.29856 38.6075 7.87632C39.3107 9.19194 39.7197 10.6158 39.823 12.1086C39.8236 12.1174 39.8242 12.1261 39.825 12.135L39.8927 12.8735C39.8861 14.0187 39.6621 15.1804 39.2085 16.4231C39.0503 16.8567 39.1579 17.3427 39.4844 17.6693L40.6596 18.8435L35.4912 24.0123L34.3167 22.8378C33.9889 22.5101 33.5005 22.4029 33.0656 22.5642C31.8486 23.015 30.6837 23.2377 29.5073 23.2448L28.7911 23.1733C28.7794 23.1722 28.7677 23.1711 28.756 23.1703C23.2997 22.7952 19.0257 18.2492 19.0257 12.821C19.0257 11.852 19.1652 10.8918 19.4419 9.95131L25.8756 16.3718C26.3436 16.8599 26.9357 17.2363 27.6737 17.5179C28.2531 17.7457 28.8505 17.8613 29.4497 17.8613C30.803 17.8613 32.074 17.3356 33.0193 16.3905C34.4088 15.0325 34.8714 12.9385 34.1977 11.0559C34.1897 11.0333 34.1811 11.0113 34.1716 10.9893C33.9677 10.5121 33.6269 9.81194 33.0201 9.22816L26.5935 2.79783C27.5288 2.51543 28.4842 2.37305 29.4496 2.37305C31.8253 2.37305 34.0593 3.15521 35.91 4.63504C36.4219 5.04432 37.1685 4.96126 37.5777 4.44931C37.9869 3.93753 37.9038 3.19096 37.392 2.78169C35.1161 0.961877 32.3697 0 29.4496 0C27.5643 0 25.7164 0.434743 23.9574 1.29236C23.6128 1.46038 23.3706 1.78453 23.3072 2.1628C23.2439 2.54091 23.3671 2.92629 23.6381 3.19761L31.3505 10.9148C31.3572 10.9214 31.3638 10.9279 31.3706 10.9344C31.5948 11.1484 31.7818 11.4432 31.9747 11.8874C32.3205 12.8909 32.081 13.989 31.3509 14.7028C30.8443 15.2092 30.1691 15.4881 29.4496 15.4881C29.149 15.4881 28.8438 15.428 28.5309 15.3051C28.1135 15.1458 27.8036 14.9558 27.5836 14.7243C27.5764 14.7167 27.5692 14.7093 27.5619 14.702L19.8289 6.98484C19.5562 6.71257 19.1683 6.59012 18.7887 6.65546C18.4092 6.72112 18.0849 6.96696 17.9194 7.31469C17.0787 9.08088 16.6525 10.9334 16.6525 12.8208C16.6525 16.0841 17.8857 19.1845 20.1251 21.5511C21.9327 23.4614 24.2603 24.7542 26.8093 25.2899C25.9093 27.383 26.2578 29.9019 27.8421 31.6616L25.0876 34.4162C24.0591 35.4437 23.4926 36.8103 23.4926 38.264C23.4926 39.6096 23.9778 40.8807 24.8647 41.8769L20.5916 46.15L18.0371 43.5955C17.5739 43.1323 16.8226 43.1323 16.3592 43.5955L9.98185 49.9711C9.979 49.9739 9.97663 49.9771 9.97394 49.9799L0.348846 59.6054C-0.114532 60.0689 -0.114532 60.82 0.348846 61.2834L7.74739 68.682C8.21076 69.1452 8.96207 69.1452 9.42529 68.682C9.88867 68.2184 9.88867 67.4673 9.42529 67.0039L2.86586 60.4445L11.7521 51.5582L29.4434 69.2494L20.5571 78.1357L12.7308 70.3092C12.2676 69.846 11.5163 69.846 11.0529 70.3092C10.5895 70.7728 10.5895 71.5239 11.0529 71.9873L19.7182 80.6526C19.9406 80.875 20.2425 81 20.5571 81C20.8718 81 21.1736 80.875 21.3961 80.6526L31.0152 71.0337C31.0205 71.0286 31.0262 71.0242 31.0315 71.0189L37.4063 64.6424C37.6288 64.4198 37.7538 64.1181 37.7538 63.8033C37.7538 63.4885 37.6288 63.1869 37.4063 62.9642L35.4624 61.0203L39.8187 56.6629C41.6746 57.8517 44.0924 57.815 45.9412 56.4655C46.4705 56.0792 46.5863 55.3369 46.2 54.8077C45.8137 54.2785 45.0714 54.1624 44.5422 54.5489C43.3155 55.4441 41.6439 55.3128 40.5673 54.2361C40.3447 54.0137 40.043 53.8887 39.7282 53.8887C39.4134 53.8887 39.1117 54.0138 38.8891 54.2363L33.7843 59.3423L22.27 47.8279L27.3746 42.7232C27.8375 42.2601 27.838 41.5097 27.3757 41.0462L26.7655 40.4343C26.1854 39.8543 25.8659 39.0834 25.8659 38.2637C25.8659 37.4441 26.1854 36.6738 26.7655 36.0943L30.3491 32.5102C30.3505 32.5088 30.3521 32.5076 30.3535 32.5062C30.355 32.5048 30.3561 32.5032 30.3575 32.5018L36.3224 26.5363C36.3249 26.5337 36.3278 26.5315 36.3305 26.529C36.3332 26.5264 36.3352 26.5236 36.3377 26.5209L42.7412 20.117C42.8372 20.021 42.9394 19.9358 43.053 19.8586C43.9287 19.2534 45.1116 19.3617 45.8703 20.1214L46.0195 20.2692C46.7741 21.0238 46.8826 22.2078 46.2766 23.0858C46.2025 23.1934 46.1171 23.2958 46.0233 23.3901C46.0219 23.3915 46.0203 23.3927 46.0189 23.3942L38.9546 30.4584C38.4912 30.922 38.4912 31.6731 38.9546 32.1365C39.1862 32.3681 39.49 32.4839 39.7935 32.4839C40.0971 32.4839 40.4009 32.3681 40.6325 32.1365L47.6907 25.0781C47.6928 25.076 47.695 25.0743 47.6971 25.0724C47.7926 24.9768 47.8967 24.8901 48.0068 24.8142C48.8831 24.2096 50.0673 24.3184 50.8222 25.0722L50.9736 25.2235C51.7278 25.9786 51.8365 27.1624 51.2272 28.0454C51.1559 28.1506 51.0708 28.2526 50.9744 28.3488C50.9743 28.3489 50.9739 28.3491 50.9738 28.3493L43.9097 35.4134C43.4463 35.8769 43.4463 36.6281 43.9097 37.0914C44.1413 37.323 44.445 37.4388 44.7486 37.4388C45.0522 37.4388 45.356 37.323 45.5876 37.0914L52.6514 30.0276C52.6517 30.0273 52.6518 30.0272 52.6522 30.0269C52.7485 29.9305 52.8507 29.8454 52.9634 29.7688C53.839 29.1646 55.0227 29.2733 55.7773 30.0269L55.9286 30.1781C56.6827 30.9332 56.7916 32.1169 56.1822 32.9998C56.1106 33.1052 56.0255 33.2075 55.929 33.304C55.9274 33.3056 55.9262 33.3074 55.9248 33.3088L48.8649 40.3685C48.4016 40.832 48.4016 41.5831 48.8649 42.0465C49.0965 42.2781 49.4003 42.3939 49.7039 42.3939C50.0075 42.3939 50.3112 42.2781 50.5428 42.0465L57.6071 34.9824C57.6082 34.9813 57.6093 34.9799 57.6104 34.9788C57.7058 34.8837 57.8069 34.7995 57.9183 34.7238C58.7944 34.1191 59.9779 34.2272 60.728 34.9775L60.8841 35.1352C61.6375 35.8886 61.7463 37.0718 61.1428 37.9487C61.0643 38.0628 60.9797 38.1647 60.8841 38.2602L47.7455 51.399C47.2821 51.8624 47.2819 52.6136 47.7453 53.0769C47.9769 53.3087 48.2807 53.4245 48.5844 53.4245C48.888 53.4245 49.1916 53.3087 49.4234 53.0771L55.312 47.1884L55.9656 47.8418C55.5803 49.0736 55.3856 50.3191 55.3856 51.5545C55.3856 51.5916 55.3873 51.6287 55.3908 51.6656L55.4623 52.425C55.6884 55.6583 57.1037 58.6598 59.4484 60.8784C61.8156 63.1181 64.9175 64.3516 68.1827 64.3516C70.0606 64.3516 71.9109 63.9251 73.6829 63.0838C74.0311 62.9185 74.2773 62.5943 74.3431 62.2146C74.4091 61.8349 74.2863 61.4467 74.0141 61.1739L66.2969 53.4378C66.2915 53.4326 66.2863 53.4274 66.2809 53.422C65.9664 53.1185 65.7974 52.7575 65.7111 52.508C65.7082 52.4998 65.7052 52.4916 65.7022 52.4835C65.3252 51.4675 65.5503 50.3838 66.2931 49.6515C66.8054 49.1426 67.4763 48.8622 68.1825 48.8622C68.4904 48.8622 68.7914 48.9211 69.0772 49.0372C69.0867 49.041 69.0963 49.045 69.1058 49.0484C69.5378 49.2112 69.8419 49.3951 70.0625 49.6273C70.0694 49.6346 70.0765 49.6419 70.0836 49.649L77.8024 57.366C78.0737 57.6375 78.46 57.7612 78.8383 57.6969C79.2169 57.6334 79.5411 57.3904 79.7087 57.0452C80.5646 55.282 80.9986 53.435 80.9986 51.5547C80.9986 48.2842 79.7627 45.1764 77.5184 42.8043ZM32.9448 61.8591C32.9449 61.8593 32.9452 61.8596 32.9454 61.8599C32.9456 61.8602 32.9459 61.8604 32.9462 61.8606L34.8892 63.8036L31.1218 67.5719L13.4299 49.88L17.1981 46.1125L19.752 48.6664C19.7523 48.6667 19.7525 48.667 19.7528 48.6673C19.7531 48.6676 19.7534 48.6678 19.7538 48.6681L32.9448 61.8591ZM29.5254 29.9784C28.4837 28.7367 28.4175 26.9273 29.3344 25.6122C29.3727 25.6158 29.4111 25.6179 29.4496 25.6179C30.672 25.6179 31.9171 25.423 33.1602 25.0376L33.813 25.6903L29.5254 29.9784ZM78.2011 54.4096L71.7712 47.9812C71.3061 47.4958 70.712 47.1203 69.9563 46.8336C69.3896 46.6055 68.7929 46.4897 68.1825 46.4897C66.8452 46.4897 65.5801 47.0149 64.6237 47.9654C63.2347 49.3346 62.7837 51.4264 63.473 53.2976C63.7174 53.9975 64.1151 54.6276 64.6242 55.1217L71.0477 61.5612C70.1056 61.839 69.1472 61.9792 68.1827 61.9792C62.7519 61.9792 58.2037 57.7044 57.8286 52.2473C57.8279 52.2374 57.8272 52.2275 57.826 52.2176L57.7587 51.5011C57.7655 50.3239 57.9942 49.1277 58.4389 47.9448C58.6028 47.509 58.4965 47.0177 58.1673 46.6884L56.9901 45.5112L62.1608 40.3406L63.3349 41.5148C63.6601 41.8401 64.1439 41.9481 64.5766 41.792C65.8319 41.339 66.9939 41.115 68.1267 41.1079L68.8615 41.1797C68.8728 41.1808 68.884 41.1818 68.8952 41.1826C74.3517 41.5589 78.6257 46.1154 78.6257 51.5555C78.6255 52.5182 78.4831 53.4732 78.2011 54.4096Z" fill="#77D3F5"/>
</svg>
