<svg width="36" height="38" viewBox="0 0 36 38" fill="none" xmlns="http://www.w3.org/2000/svg">
<g clip-path="url(#clip0)">
<path d="M19.919 37.4063H14.2873C13.3466 37.4063 12.5814 36.609 12.5814 35.6289V22.3942H9.29571C8.35503 22.3942 7.58982 21.5966 7.58982 20.6168V14.9457C7.58982 13.9657 8.35503 13.1684 9.29571 13.1684H12.5814V10.3285C12.5814 7.51266 13.43 5.11697 15.0353 3.40085C16.6478 1.6769 18.9013 0.765869 21.5522 0.765869L25.8472 0.773137C26.7863 0.774815 27.5501 1.57207 27.5501 2.55048V7.81597C27.5501 8.79605 26.7852 9.59331 25.8448 9.59331L22.953 9.59443C22.0711 9.59443 21.8465 9.77865 21.7985 9.83511C21.7193 9.92876 21.6251 10.1935 21.6251 10.9245V13.1681H25.6275C25.9288 13.1681 26.2207 13.2456 26.4715 13.3915C27.0127 13.7065 27.3492 14.3022 27.3492 14.946L27.347 20.6171C27.347 21.5966 26.5818 22.3939 25.6411 22.3939H21.6251V35.6289C21.6251 36.609 20.8597 37.4063 19.919 37.4063ZM14.643 35.2582H19.5632V21.4326C19.5632 20.7781 20.0743 20.2459 20.7022 20.2459H25.2854L25.2872 15.3164H20.7019C20.0741 15.3164 19.5632 14.7842 19.5632 14.1297V10.9245C19.5632 10.0853 19.645 9.13094 20.253 8.41363C20.9876 7.54649 22.1454 7.44641 22.9524 7.44641L25.4885 7.44529V2.92059L21.5506 2.91389C17.2904 2.91389 14.643 5.75517 14.643 10.3285V14.1297C14.643 14.7839 14.1322 15.3164 13.5043 15.3164H9.65148V20.2459H13.5043C14.1322 20.2459 14.643 20.7781 14.643 21.4326V35.2582ZM25.8432 2.92115H25.8434H25.8432Z" fill="#77D3F5"/>
</g>
<defs>
<clipPath id="clip0">
<rect width="35.0986" height="36.6404" fill="white" transform="translate(0 0.837646)"/>
</clipPath>
</defs>
</svg>
