<svg width="86" height="86" viewBox="0 0 86 86" fill="none" xmlns="http://www.w3.org/2000/svg">
<path d="M24.3044 33.6522H16.8261C15.7941 33.6522 14.9564 34.4898 14.9564 35.5218V50.4782C14.9564 51.5102 15.7941 52.3478 16.8261 52.3478C17.8581 52.3478 18.6957 51.5102 18.6957 50.4782V37.3912H24.3044C25.3364 37.3912 26.174 36.5536 26.174 35.5216C26.174 34.4896 25.3364 33.6522 24.3044 33.6522Z" fill="#11284A"/>
<path d="M20.5651 41.1305H16.8261C15.7941 41.1305 14.9564 41.9681 14.9564 43.0001C14.9564 44.0321 15.7941 44.8695 16.8261 44.8695H20.5651C21.5971 44.8695 22.4348 44.0319 22.4348 42.9999C22.4348 41.9679 21.5971 41.1305 20.5651 41.1305Z" fill="#11284A"/>
<path d="M42.9999 0C19.2902 0 0 19.2902 0 42.9999C0 66.7096 19.2902 85.9998 42.9999 85.9998C66.7096 85.9998 85.9998 66.7096 85.9998 42.9999C85.9998 19.2902 66.7098 0 42.9999 0ZM42.9999 82.2608C21.3504 82.2608 3.73907 64.6495 3.73907 42.9999C3.73907 21.3504 21.3504 3.73907 42.9999 3.73907C64.6495 3.73907 82.2608 21.3504 82.2608 42.9999C82.2608 64.6495 64.6495 82.2608 42.9999 82.2608Z" fill="#11284A"/>
<path d="M67.7866 23.1339C61.7105 15.5622 52.6768 11.2174 42.9999 11.2174C33.323 11.2174 24.2893 15.5622 18.2132 23.1339C17.5662 23.9379 17.6935 25.1157 18.5011 25.7625C19.3051 26.4094 20.4829 26.2821 21.126 25.4745C26.4916 18.7889 34.4635 14.9563 42.9999 14.9563C51.5363 14.9563 59.5082 18.7889 64.8701 25.4745C65.2403 25.9344 65.7824 26.1736 66.3284 26.1736C66.7434 26.1736 67.1548 26.039 67.4987 25.7623C68.3063 25.1157 68.4336 23.9379 67.7866 23.1339Z" fill="#11284A"/>
<path d="M65.9731 62.2079C65.2328 61.5012 64.0437 61.5312 63.3334 62.2789C57.9678 67.9288 50.7475 71.0434 42.9999 71.0434C35.2524 71.0434 28.0322 67.9286 22.6703 62.2789C21.9636 61.5236 20.7746 61.5012 20.0306 62.2079C19.2753 62.9183 19.249 64.1036 19.9596 64.8515C26.0357 71.2567 34.2169 74.7826 43.0001 74.7826C51.7833 74.7826 59.9645 71.2567 66.0443 64.8515C66.7547 64.1036 66.7247 62.9183 65.9731 62.2079Z" fill="#11284A"/>
<path d="M36.247 44.821C38.999 44.4657 41.1303 42.1064 41.1303 39.2608C41.1303 36.1685 38.6139 33.6522 35.5216 33.6522H31.7825C30.7505 33.6522 29.9129 34.4898 29.9129 35.5218V42.985C29.9129 42.9926 29.9129 43.0038 29.9129 43.0111V50.4782C29.9129 51.5102 30.7505 52.3478 31.7825 52.3478C32.8145 52.3478 33.6522 51.5102 33.6522 50.4782V47.5132L37.9372 51.8019C38.3037 52.1645 38.7822 52.3478 39.2608 52.3478C39.7395 52.3478 40.218 52.1647 40.5808 51.7982C41.3099 51.0691 41.3099 49.8837 40.5808 49.1546L36.247 44.821ZM33.6522 41.1305V37.3914H35.5218C36.5501 37.3914 37.3914 38.229 37.3914 39.261C37.3914 40.293 36.5501 41.1306 35.5218 41.1306H33.6522V41.1305Z" fill="#11284A"/>
<path d="M54.2173 48.6086H48.6086V37.3912H54.2173C55.2493 37.3912 56.0869 36.5536 56.0869 35.5216C56.0869 34.4896 55.2493 33.6522 54.2173 33.6522H46.739C45.707 33.6522 44.8694 34.4898 44.8694 35.5218V50.4782C44.8694 51.5102 45.707 52.3478 46.739 52.3478H54.2173C55.2493 52.3478 56.0869 51.5102 56.0869 50.4782C56.0869 49.4462 55.2493 48.6086 54.2173 48.6086Z" fill="#11284A"/>
<path d="M50.4782 41.1305H46.7392C45.7072 41.1305 44.8695 41.9681 44.8695 43.0001C44.8695 44.0321 45.7072 44.8695 46.7392 44.8695H50.4782C51.5102 44.8695 52.3479 44.0319 52.3479 42.9999C52.3479 41.9679 51.5102 41.1305 50.4782 41.1305Z" fill="#11284A"/>
<path d="M69.1739 48.6086H63.5652V37.3912H69.1739C70.2059 37.3912 71.0435 36.5536 71.0435 35.5216C71.0435 34.4896 70.2059 33.6522 69.1739 33.6522H61.6956C60.6636 33.6522 59.826 34.4898 59.826 35.5218V50.4782C59.826 51.5102 60.6636 52.3478 61.6956 52.3478H69.1739C70.2059 52.3478 71.0435 51.5102 71.0435 50.4782C71.0435 49.4462 70.2059 48.6086 69.1739 48.6086Z" fill="#11284A"/>
<path d="M65.4347 41.1305H61.6956C60.6636 41.1305 59.826 41.9681 59.826 43.0001C59.826 44.0321 60.6636 44.8695 61.6956 44.8695H65.4347C66.4667 44.8695 67.3043 44.0319 67.3043 42.9999C67.3043 41.9679 66.4667 41.1305 65.4347 41.1305Z" fill="#11284A"/>
</svg>
