<svg width="36" height="38" viewBox="0 0 36 38" fill="none" xmlns="http://www.w3.org/2000/svg">
<g clip-path="url(#clip0)">
<path d="M35.328 17.5626C35.1758 16.3672 34.1517 15.4308 32.9966 15.4308H19.9558C18.7709 15.4308 17.8069 16.4371 17.8069 17.6741V20.8939C17.8069 22.1309 18.7709 23.1372 19.9558 23.1372H26.395C26.618 23.1372 26.7278 23.2205 26.7401 23.2482C26.7412 23.253 26.741 23.2735 26.7296 23.3089C25.9825 25.0446 24.7816 26.5266 23.2556 27.5955C23.2555 27.5955 23.2554 27.5956 23.2554 27.5956C21.6469 28.7221 19.7764 29.3174 17.8463 29.3174C13.8492 29.3174 10.2002 26.6937 8.76627 22.7884C8.7662 22.7882 8.7662 22.7881 8.76613 22.7879C8.33371 21.6097 8.11441 20.3883 8.11441 19.1578C8.11441 17.9116 8.33789 16.6781 8.77868 15.4917C8.77888 15.4912 8.77902 15.4905 8.77923 15.4899C10.2447 11.5465 13.8034 8.99858 17.8459 8.99858C19.7934 8.99858 21.6755 9.6035 23.2888 10.7481C23.2916 10.75 23.2944 10.752 23.2972 10.754L23.3466 10.788C23.3509 10.7909 23.355 10.7937 23.3594 10.7965C23.776 11.0703 24.2485 11.215 24.7255 11.215C25.3561 11.215 25.9321 10.9592 26.3467 10.4959L28.8928 7.66027C29.2953 7.2105 29.4856 6.62275 29.4148 6.04788C29.3468 5.49548 29.0429 4.99518 28.5772 4.66499C28.5651 4.65376 28.5526 4.64302 28.5398 4.63272C25.4506 2.14997 21.7526 0.837646 17.846 0.837646C11.3392 0.837646 5.39825 4.56895 2.34126 10.5756C2.34084 10.5765 2.34057 10.5773 2.34009 10.578C1.00347 13.2056 0.296906 16.1724 0.296906 19.158C0.296906 22.1592 1.00978 25.1389 2.35833 27.7753C2.35839 27.7754 2.35846 27.7756 2.3586 27.7758C5.42081 33.7604 11.3551 37.478 17.8459 37.478C22.0242 37.478 26.0741 35.9151 29.2499 33.0769C29.2508 33.0762 29.2516 33.0755 29.2525 33.0748C33.1564 29.5846 35.3953 24.5121 35.3953 19.1578C35.3953 18.1038 35.3307 17.5842 35.328 17.5626ZM17.846 2.33318C21.4239 2.33318 24.8105 3.53129 27.6425 5.79884C27.6425 5.79884 27.7204 5.86267 27.7539 5.8893C27.9011 6.00652 27.9776 6.1047 27.9941 6.23838C28.0105 6.37199 27.958 6.51447 27.847 6.63856L25.3009 9.47418C25.1194 9.677 24.888 9.7195 24.7258 9.7195C24.5242 9.7195 24.3122 9.65388 24.1282 9.53458L24.0899 9.50818C22.2392 8.19642 20.0801 7.50312 17.8461 7.50312C15.5507 7.50312 13.3464 8.22641 11.4713 9.59491C9.90677 10.7368 8.66166 12.2563 7.82999 14.0285L3.89334 10.7372C6.77525 5.53735 12.0677 2.33318 17.846 2.33318ZM1.7295 19.158C1.7295 16.7192 2.24384 14.2949 3.22098 12.091L7.2632 15.4705C6.87726 16.6696 6.68195 17.9073 6.68195 19.1578C6.68195 20.3938 6.87383 21.62 7.25292 22.8104L3.23154 26.2505C2.24748 24.0405 1.7295 21.6074 1.7295 19.158ZM17.8459 35.9825C12.0807 35.9825 6.79314 32.7882 3.9076 27.6057L7.81792 24.2605C8.64617 26.0374 9.88928 27.5617 11.454 28.7083C13.3328 30.0852 15.5432 30.813 17.8464 30.813C19.8854 30.813 21.866 30.2345 23.6072 29.1347L27.6449 32.5106C24.8402 34.7554 21.3933 35.9825 17.8459 35.9825ZM28.7616 31.528L24.8295 28.2406C26.2184 27.0777 27.3222 25.5926 28.0478 23.8953C28.0531 23.8829 28.058 23.8704 28.0626 23.8578C28.2485 23.351 28.1963 22.8193 27.9194 22.3992C27.6068 21.9248 27.0369 21.6416 26.395 21.6416H19.9558C19.5608 21.6416 19.2395 21.3062 19.2395 20.8938V17.674C19.2395 17.2617 19.5608 16.9263 19.9558 16.9263H32.9966C33.4255 16.9263 33.8513 17.3157 33.9076 17.7577C33.9081 17.7622 33.9626 18.2181 33.9626 19.1578C33.9627 23.869 32.0737 28.342 28.7616 31.528Z" fill="#77D3F5"/>
</g>
<defs>
<clipPath id="clip0">
<rect width="35.0985" height="36.6404" fill="white" transform="translate(0.295898 0.837646)"/>
</clipPath>
</defs>
</svg>
