<svg width="36" height="36" viewBox="0 0 36 36" fill="none" xmlns="http://www.w3.org/2000/svg">
<path d="M24.8625 2.92505H10.2375C6.19892 2.92505 2.925 6.19897 2.925 10.2375V24.8625C2.925 28.9011 6.19892 32.175 10.2375 32.175H24.8625C28.9011 32.175 32.175 28.9011 32.175 24.8625V10.2375C32.175 6.19897 28.9011 2.92505 24.8625 2.92505Z" stroke="#77D3F5" stroke-width="2" stroke-linecap="round" stroke-linejoin="round"/>
<path d="M23.4 16.6286C23.5805 17.8458 23.3726 19.0889 22.8059 20.1811C22.2392 21.2733 21.3425 22.1589 20.2434 22.7121C19.1443 23.2654 17.8987 23.4579 16.6839 23.2624C15.469 23.0669 14.3468 22.4934 13.4767 21.6233C12.6066 20.7532 12.0331 19.631 11.8376 18.4161C11.6421 17.2013 11.8347 15.9557 12.3879 14.8566C12.9411 13.7575 13.8268 12.8608 14.9189 12.2941C16.0111 11.7274 17.2542 11.5195 18.4714 11.7C19.7129 11.8841 20.8623 12.4626 21.7499 13.3501C22.6374 14.2377 23.2159 15.3871 23.4 16.6286Z" stroke="#77D3F5" stroke-width="2" stroke-linecap="round" stroke-linejoin="round"/>
<path d="M25.5938 9.50635H25.609" stroke="#77D3F5" stroke-width="2" stroke-linecap="round" stroke-linejoin="round"/>
</svg>
