<svg width="50" height="50" viewBox="0 0 50 50" fill="none" xmlns="http://www.w3.org/2000/svg">
<path d="M45.3125 10.5453H4.6875V35.5453H45.3125V10.5453Z" fill="white"/>
<path d="M45.3125 10.5453H4.6875V16.7953H45.3125V10.5453Z" fill="#77D3F5"/>
<path d="M44.8372 7.42029H5.16133C3.17686 7.42029 1.5625 9.03093 1.5625 11.0107V39.4515C1.5625 39.8834 1.91191 40.2328 2.34375 40.2328H47.6562C48.0881 40.2328 48.4375 39.8834 48.4375 39.4515V11.0107C48.4375 9.03093 46.8224 7.42029 44.8372 7.42029ZM4.6875 34.764V11.3265C4.6875 10.8951 5.0373 10.5453 5.46875 10.5453H44.5312C44.9627 10.5453 45.3125 10.8951 45.3125 11.3265V34.764C45.3125 35.1955 44.9627 35.5453 44.5312 35.5453H5.46875C5.0373 35.5453 4.6875 35.1955 4.6875 34.764Z" fill="#5C546A"/>
<path d="M49.2188 38.6703H0.78125C0.349414 38.6703 0 39.0197 0 39.4515C0 41.1765 1.40303 42.5796 3.12803 42.5796H46.8719C48.5969 42.5796 49.9999 41.1765 49.9999 39.4515C50 39.0197 49.6506 38.6703 49.2188 38.6703Z" fill="#B9BBC1"/>
<path d="M14.0625 14.4515H8.59375C8.16191 14.4515 7.8125 14.1021 7.8125 13.6703C7.8125 13.2385 8.16191 12.889 8.59375 12.889H14.0625C14.4943 12.889 14.8438 13.2385 14.8438 13.6703C14.8438 14.1021 14.4943 14.4515 14.0625 14.4515Z" fill="#11284A"/>
<path d="M28.125 14.4515H27.3438C26.9119 14.4515 26.5625 14.1021 26.5625 13.6703C26.5625 13.2385 26.9119 12.889 27.3438 12.889H28.125C28.5568 12.889 28.9062 13.2385 28.9062 13.6703C28.9062 14.1021 28.5568 14.4515 28.125 14.4515Z" fill="white"/>
<path d="M32.0312 14.4515H31.25C30.8182 14.4515 30.4688 14.1021 30.4688 13.6703C30.4688 13.2385 30.8182 12.889 31.25 12.889H32.0312C32.4631 12.889 32.8125 13.2385 32.8125 13.6703C32.8125 14.1021 32.4631 14.4515 32.0312 14.4515Z" fill="white"/>
<path d="M35.9375 14.4515H35.1562C34.7244 14.4515 34.375 14.1021 34.375 13.6703C34.375 13.2385 34.7244 12.889 35.1562 12.889H35.9375C36.3693 12.889 36.7188 13.2385 36.7188 13.6703C36.7188 14.1021 36.3693 14.4515 35.9375 14.4515Z" fill="white"/>
<path d="M39.8438 14.4515H39.0625C38.6307 14.4515 38.2812 14.1021 38.2812 13.6703C38.2812 13.2385 38.6307 12.889 39.0625 12.889H39.8438C40.2756 12.889 40.625 13.2385 40.625 13.6703C40.625 14.1021 40.2756 14.4515 39.8438 14.4515Z" fill="white"/>
<path d="M21.875 33.2016H8.59375C8.1623 33.2016 7.8125 32.8518 7.8125 32.4203V19.9203C7.8125 19.4888 8.1623 19.139 8.59375 19.139H21.875C22.3064 19.139 22.6562 19.4888 22.6562 19.9203V32.4203C22.6562 32.8518 22.3064 33.2016 21.875 33.2016Z" fill="#53DCFF"/>
<path d="M40.625 20.7015H25.7812C25.3494 20.7015 25 20.3521 25 19.9203C25 19.4885 25.3494 19.139 25.7812 19.139H40.625C41.0568 19.139 41.4062 19.4885 41.4062 19.9203C41.4062 20.3521 41.0568 20.7015 40.625 20.7015Z" fill="#77D3F5"/>
<path d="M32.0312 26.9515H25.7812C25.3494 26.9515 25 26.6021 25 26.1703C25 25.7385 25.3494 25.389 25.7812 25.389H32.0312C32.4631 25.389 32.8125 25.7385 32.8125 26.1703C32.8125 26.6021 32.4631 26.9515 32.0312 26.9515Z" fill="#B9BBC1"/>
<path d="M32.0312 30.0765H25.7812C25.3494 30.0765 25 29.7271 25 29.2953C25 28.8635 25.3494 28.514 25.7812 28.514H32.0312C32.4631 28.514 32.8125 28.8635 32.8125 29.2953C32.8125 29.7271 32.4631 30.0765 32.0312 30.0765Z" fill="#B9BBC1"/>
<path d="M32.0312 33.2015H25.7812C25.3494 33.2015 25 32.8521 25 32.4203C25 31.9885 25.3494 31.639 25.7812 31.639H32.0312C32.4631 31.639 32.8125 31.9885 32.8125 32.4203C32.8125 32.8521 32.4631 33.2015 32.0312 33.2015Z" fill="#B9BBC1"/>
<path d="M41.4062 26.9515H35.1562C34.7244 26.9515 34.375 26.6021 34.375 26.1703C34.375 25.7385 34.7244 25.389 35.1562 25.389H41.4062C41.8381 25.389 42.1875 25.7385 42.1875 26.1703C42.1875 26.6021 41.8381 26.9515 41.4062 26.9515Z" fill="#B9BBC1"/>
<path d="M41.4062 30.0765H35.1562C34.7244 30.0765 34.375 29.7271 34.375 29.2953C34.375 28.8635 34.7244 28.514 35.1562 28.514H41.4062C41.8381 28.514 42.1875 28.8635 42.1875 29.2953C42.1875 29.7271 41.8381 30.0765 41.4062 30.0765Z" fill="#B9BBC1"/>
<path d="M41.4062 33.2015H35.1562C34.7244 33.2015 34.375 32.8521 34.375 32.4203C34.375 31.9885 34.7244 31.639 35.1562 31.639H41.4062C41.8381 31.639 42.1875 31.9885 42.1875 32.4203C42.1875 32.8521 41.8381 33.2015 41.4062 33.2015Z" fill="#B9BBC1"/>
<path d="M35.9375 23.8265H25.7812C25.3494 23.8265 25 23.4771 25 23.0453C25 22.6135 25.3494 22.264 25.7812 22.264H35.9375C36.3693 22.264 36.7188 22.6135 36.7188 23.0453C36.7188 23.4771 36.3693 23.8265 35.9375 23.8265Z" fill="#11284A"/>
<path d="M21.875 40.2328H28.125C28.9879 40.2328 29.6875 39.5332 29.6875 38.6703H20.3125C20.3125 39.5333 21.012 40.2328 21.875 40.2328Z" fill="#8B8996"/>
</svg>
