<svg width="50" height="36" viewBox="0 0 50 36" fill="none" xmlns="http://www.w3.org/2000/svg">
<path d="M45.3688 26.7967V24.9456V13.8345V2.72339C45.3688 1.70647 44.5364 0.872314 43.5177 0.872314H6.48226C5.46359 0.872314 4.62885 1.70237 4.62885 2.72339V13.8345V24.9456V26.7967L0 32.3522C0 33.8829 1.24303 35.1277 2.77778 35.1277H47.2222C48.7546 35.1277 50 33.8823 50 32.3522L45.3688 26.7967ZM28.7062 34.2051H21.2979C21.0419 34.2051 20.8345 33.9995 20.8345 33.7417C20.8345 33.484 21.0419 33.2784 21.2979 33.2784H28.7068C28.9605 33.2784 29.1702 33.484 29.1702 33.7417C29.1632 34 28.9599 34.2051 28.7062 34.2051ZM17.3667 32.354L18.7796 30.6582H31.2175L32.6327 32.354H17.3667ZM42.7627 23.5216C42.7627 24.4149 42.0351 25.1377 41.1483 25.1377H8.85117C7.96429 25.1377 7.23675 24.4084 7.23675 23.5216V4.15094C7.23675 3.25762 7.96429 2.53476 8.85117 2.53476H41.1488C42.0357 2.53476 42.7633 3.2623 42.7633 4.15094C42.7627 4.15094 42.7627 23.5216 42.7627 23.5216Z" fill="#77D3F5"/>
</svg>
