<svg width="48" height="48" viewBox="0 0 48 48" fill="none" xmlns="http://www.w3.org/2000/svg">
<path d="M29.7723 13.4613C29.7721 12.3197 29.4334 11.2038 28.7991 10.2546C28.1647 9.3055 27.2632 8.56577 26.2084 8.129C25.1537 7.69224 23.9931 7.57804 22.8734 7.80085C21.7538 8.02366 20.7253 8.57348 19.9181 9.38077C19.1109 10.1881 18.5613 11.2166 18.3386 12.3363C18.1159 13.456 18.2303 14.6165 18.6672 15.6712C19.1041 16.7259 19.844 17.6274 20.7932 18.2616C21.7424 18.8958 22.8584 19.2344 24 19.2344C25.5305 19.2325 26.9977 18.6237 28.0798 17.5414C29.162 16.4591 29.7706 14.9918 29.7723 13.4613V13.4613ZM19.5949 13.4613C19.5951 12.5901 19.8536 11.7385 20.3377 11.0142C20.8218 10.2899 21.5099 9.72541 22.3148 9.39212C23.1197 9.05883 24.0054 8.97171 24.8599 9.14177C25.7143 9.31182 26.4992 9.73143 27.1151 10.3475C27.7311 10.9636 28.1506 11.7485 28.3205 12.603C28.4904 13.4575 28.4031 14.3432 28.0697 15.148C27.7363 15.9529 27.1716 16.6408 26.4473 17.1248C25.7229 17.6088 24.8712 17.8672 24 17.8672C22.832 17.8658 21.7122 17.4012 20.8864 16.5752C20.0605 15.7492 19.5961 14.6293 19.5949 13.4613V13.4613Z" fill="white"/>
<path d="M47.175 46.2926L41.6023 31.6832C41.5529 31.5539 41.4654 31.4426 41.3514 31.364C41.2373 31.2855 41.1021 31.2434 40.9637 31.2434H30.4168C30.4813 31.1383 30.5453 31.0363 30.6098 30.9309C34.668 24.2121 36.7102 18.3348 36.6809 13.4644C36.6814 10.1012 35.3459 6.87542 32.9681 4.49682C30.5903 2.11822 27.365 0.781622 24.0018 0.781052C20.6385 0.780482 17.4127 2.11599 15.0341 4.49378C12.6555 6.87158 11.3189 10.0969 11.3184 13.4602C11.2891 18.3348 13.3313 24.2129 17.3895 30.9309C17.4539 31.0375 17.518 31.1394 17.5824 31.2434H7.03555C6.89708 31.2434 6.76189 31.2855 6.64786 31.364C6.53382 31.4426 6.4463 31.5539 6.39688 31.6832L0.825001 46.2926C0.7853 46.3961 0.771397 46.5077 0.784495 46.6178C0.797593 46.7279 0.837297 46.8331 0.900177 46.9244C0.963057 47.0157 1.04722 47.0903 1.1454 47.1418C1.24358 47.1933 1.35281 47.2201 1.46367 47.2199H46.5363C46.6472 47.2201 46.7564 47.1933 46.8546 47.1418C46.9528 47.0903 47.0369 47.0157 47.0998 46.9244C47.1627 46.8331 47.2024 46.7279 47.2155 46.6178C47.2286 46.5077 47.2147 46.3961 47.175 46.2926V46.2926ZM12.6859 13.4613C12.6862 11.9755 12.9791 10.5044 13.5479 9.13177C14.1167 7.75918 14.9503 6.51207 16.0011 5.46165C17.0519 4.41122 18.2993 3.57805 19.6721 3.0097C21.0449 2.44135 22.5162 2.14896 24.002 2.14922C25.4877 2.14947 26.9589 2.44237 28.3315 3.01119C29.7041 3.58002 30.9512 4.41362 32.0016 5.46441C33.0521 6.5152 33.8852 7.7626 34.4536 9.13538C35.0219 10.5082 35.3143 11.9794 35.3141 13.4652C35.3727 23.1754 26.2945 35.1516 24 38.0234C21.7055 35.1527 12.627 23.1797 12.6859 13.4613V13.4613ZM23.4793 39.5469C23.5435 39.6223 23.6233 39.6829 23.7132 39.7245C23.8031 39.766 23.901 39.7876 24 39.7876C24.099 39.7876 24.1969 39.766 24.2868 39.7245C24.3767 39.6829 24.4565 39.6223 24.5207 39.5469C26.3357 37.3359 28.0183 35.0195 29.5598 32.6098H40.4922L41.3672 34.9047L20.0035 42.5027L12.3887 32.6086H18.4395C19.9811 35.0187 21.664 37.3355 23.4793 39.5469V39.5469ZM19.9797 43.9609H19.9836L32.7285 39.4297L37.6719 45.8527H14.6641L19.9797 43.9609ZM7.50703 32.6086H10.6633L18.6484 42.9844L10.5848 45.8523H2.45586L7.50703 32.6086ZM39.3988 45.8527L34.0828 38.9457L41.8563 36.1812L45.5449 45.8527H39.3988Z" fill="white"/>
</svg>
