<svg width="15" height="15" viewBox="0 0 15 15" fill="none" xmlns="http://www.w3.org/2000/svg">
<path d="M9.40625 3.125C10.0167 3.2441 10.5777 3.54266 11.0175 3.98246C11.4573 4.42226 11.7559 4.98329 11.875 5.59375L9.40625 3.125ZM9.40625 0.625C10.6746 0.765898 11.8572 1.33386 12.7602 2.23563C13.6631 3.1374 14.2325 4.31938 14.375 5.5875L9.40625 0.625ZM13.75 10.575V12.45C13.7507 12.6241 13.7151 12.7964 13.6453 12.9558C13.5756 13.1153 13.4733 13.2585 13.3451 13.3762C13.2168 13.4938 13.0654 13.5834 12.9005 13.6392C12.7356 13.695 12.5609 13.7157 12.3875 13.7C10.4643 13.491 8.61688 12.8338 6.99375 11.7813C5.48365 10.8217 4.20334 9.54136 3.24375 8.03125C2.18749 6.40075 1.53016 4.54437 1.325 2.6125C1.30939 2.43967 1.32993 2.26548 1.38532 2.10102C1.44071 1.93656 1.52974 1.78543 1.64673 1.65726C1.76373 1.5291 1.90613 1.42669 2.06487 1.35658C2.22361 1.28646 2.39522 1.25016 2.56875 1.25H4.44375C4.74707 1.24701 5.04112 1.35442 5.27111 1.55221C5.50109 1.74999 5.6513 2.02465 5.69375 2.325C5.77289 2.92504 5.91966 3.5142 6.13125 4.08125C6.21534 4.30495 6.23354 4.54807 6.1837 4.7818C6.13385 5.01553 6.01804 5.23007 5.85 5.4L5.05625 6.19375C5.94598 7.75847 7.24154 9.05403 8.80625 9.94375L9.6 9.15C9.76993 8.98196 9.98448 8.86616 10.2182 8.81631C10.4519 8.76646 10.6951 8.78466 10.9188 8.86875C11.4858 9.08034 12.075 9.22711 12.675 9.30625C12.9786 9.34908 13.2559 9.502 13.4541 9.73593C13.6523 9.96986 13.7576 10.2685 13.75 10.575Z" stroke="#77D3F5" stroke-linecap="round" stroke-linejoin="round"/>
</svg>
