<svg width="50" height="48" viewBox="0 0 50 48" fill="none" xmlns="http://www.w3.org/2000/svg">
<path d="M50 33.0137C50 30.3495 47.8312 28.1807 45.1686 28.1807C45.053 28.1807 44.9405 28.201 44.828 28.2073C45.3061 27.076 45.5686 25.8166 45.5686 24.4337C45.5686 21.207 41.4435 13.8053 38.7512 11.3583C37.2762 11.6755 35.7074 11.8474 34.0808 11.8474C32.4026 11.8474 30.7932 11.6646 29.2775 11.3286C26.618 13.4771 21.9601 21.107 21.9601 24.4353C21.9601 24.9962 22.0117 25.5306 22.1038 26.04C21.3007 25.9853 20.4835 25.9541 19.6506 25.9541C17.4959 25.9541 15.4208 26.1869 13.4583 26.6166C13.4004 25.9025 13.3598 25.4666 13.3598 25.4666H0.562542C0.562542 25.4666 0.00158691 30.1542 0.00158691 35.9309C0.00158691 41.7077 0.562542 46.3922 0.562542 46.3922H13.3583C13.3583 46.3922 13.4708 45.1687 13.5926 43.4327C15.4974 43.1124 17.4474 43.6156 19.6991 45.0156C22.5554 46.8782 26.0743 47.986 29.8838 47.986C33.7464 47.986 37.0637 46.8469 39.8216 44.9312L39.8247 44.9343C39.8575 44.9109 39.8888 44.8875 39.931 44.85C40.7122 44.3 41.4513 43.6921 42.1404 43.0249C42.681 42.4718 43.4139 41.7639 44.5124 40.6889C48.2015 37.0638 48.6562 36.3466 48.6562 36.3466C48.6562 36.3466 48.6484 36.3466 48.6422 36.3466C49.4813 35.4825 50 34.3106 50 33.0137ZM30.9869 20.4383C31.1057 20.1508 31.276 19.8945 31.4854 19.6726C31.7041 19.4461 31.9573 19.2601 32.2479 19.1148C32.5417 18.9648 32.8589 18.8679 33.2042 18.8163V17.9773H34.9824V18.9445C35.2449 19.0179 35.4808 19.121 35.6933 19.246V18.8679H37.4731V21.5321H35.6824C35.5386 21.3727 35.3964 21.2305 35.2621 21.1086C35.1246 20.9867 34.9808 20.882 34.8308 20.8039C34.6761 20.7258 34.5136 20.6633 34.3323 20.6211C34.1495 20.5789 33.9386 20.557 33.6917 20.557C33.3354 20.557 33.0651 20.643 32.8729 20.8102C32.6839 20.9805 32.587 21.1617 32.587 21.3571C32.587 21.9071 33.1792 22.2696 34.3683 22.4493C35.1042 22.5587 35.6902 22.7399 36.1262 22.9868C36.5574 23.2368 36.8902 23.5071 37.1215 23.8009C37.3496 24.0915 37.4965 24.3806 37.5606 24.665C37.6246 24.9509 37.6575 25.1775 37.6575 25.3541C37.6575 25.6931 37.5903 26.0103 37.4528 26.2978C37.3168 26.5916 37.1324 26.851 36.8949 27.0666C36.6621 27.2869 36.3762 27.4635 36.0543 27.601C35.7277 27.7354 35.3714 27.8151 34.9902 27.8416V28.6417H33.212V27.601C33.1151 27.5588 33.0307 27.5182 32.937 27.4791C32.8464 27.4463 32.7651 27.4026 32.6776 27.3604V27.751H30.8994V25.0869H32.6776C32.8323 25.2572 32.9776 25.4009 33.1292 25.5259C33.2761 25.6478 33.4261 25.7525 33.587 25.8275C33.7448 25.9103 33.9167 25.9681 34.1058 26.0072C34.298 26.0416 34.5152 26.0603 34.7621 26.0603C35.0824 26.0603 35.348 25.9963 35.5621 25.865C35.7746 25.7338 35.8793 25.565 35.8793 25.3509C35.8793 25.1744 35.8215 25.0197 35.7136 24.8853C35.6058 24.7556 35.4636 24.6462 35.2902 24.5493C35.1183 24.4571 34.9292 24.3837 34.7214 24.329C34.512 24.2743 34.3074 24.229 34.1027 24.1946C33.3823 24.0853 32.8089 23.9118 32.3776 23.6852C31.9479 23.4571 31.6151 23.2087 31.3807 22.9368C31.151 22.6649 30.9932 22.3868 30.9229 22.104C30.8494 21.8227 30.8151 21.5696 30.8151 21.3508C30.8072 21.0336 30.8682 20.7273 30.9869 20.4383ZM47.064 34.9059C46.4171 35.5466 43.6826 38.367 42.9389 39.0951C41.0201 40.978 40.1247 41.8608 39.706 42.3483L39.695 42.3405C39.4013 42.6046 39.0934 42.8405 38.7794 43.0718C36.3043 44.7453 33.2214 45.7484 29.8822 45.7484C26.5102 45.7484 23.4039 44.7328 20.9194 43.0327H20.9038C18.7522 41.7233 16.2318 40.917 13.738 41.1624C13.838 39.4404 13.9176 37.5544 13.9176 35.9341C13.9176 33.6793 13.7614 30.9167 13.6192 28.7932C15.5146 28.3666 17.5412 28.1276 19.646 28.1276C26.079 28.1276 31.7713 30.2542 35.2574 33.5871C35.6683 34.0449 35.9277 34.6465 35.9277 35.309C35.9277 36.7372 34.7652 37.8998 33.337 37.8998C33.287 37.8998 33.2354 37.8841 33.1761 37.881L33.1698 37.9091C31.837 37.8638 29.751 37.3044 26.229 35.9559L25.4289 38.056C29.1525 39.4717 31.6057 40.1123 33.3448 40.1561V40.1405C35.5246 40.1373 37.3637 38.681 37.9622 36.7013V36.7044C38.7153 35.4528 41.5357 32.8465 43.1373 31.4214V31.4246C43.1561 31.4027 43.1701 31.3917 43.1826 31.3792C43.4779 31.1167 43.7358 30.8917 43.9186 30.7339C44.2577 30.5183 44.6077 30.4292 45.1671 30.4292C46.5921 30.4292 47.7546 31.5917 47.7546 33.0199C47.7578 33.7309 47.4406 34.4028 47.064 34.9059Z" fill="#77D3F5"/>
<path d="M29.8885 9.74109C29.8885 9.74109 32.0604 10.2567 34.1886 10.2567C36.3152 10.2567 37.7153 9.95516 37.7153 9.95516C38.9512 9.34733 41.7295 2.93931 40.0997 0.679867C38.2778 -1.84052 35.2324 3.63777 33.8261 3.07525C32.4261 2.5143 29.4385 -0.407667 27.4681 0.782995C25.7555 1.81897 28.5416 8.73949 29.8885 9.74109Z" fill="#77D3F5"/>
</svg>
