<svg width="50" height="50" viewBox="0 0 50 50" fill="none" xmlns="http://www.w3.org/2000/svg">
<g clip-path="url(#clip0)">
<path d="M34.157 14.6462C34.1182 14.6462 34.0786 14.6432 34.039 14.637C33.0099 14.4751 32.2163 13.9034 31.4489 13.3505C30.9889 13.0192 30.5543 12.7061 30.0962 12.5021C28.6107 11.8406 27.0169 12.3868 25.3588 14.1252C25.071 14.4268 24.5935 14.438 24.2919 14.1505C23.9904 13.8629 23.9791 13.3853 24.2666 13.0837C26.939 10.282 29.2455 10.4713 30.7101 11.1236C31.3103 11.3909 31.8291 11.7647 32.331 12.1262C32.9835 12.5963 33.5999 13.0404 34.2734 13.1463C34.685 13.2111 34.9663 13.5973 34.9016 14.0089C34.843 14.3808 34.5221 14.6462 34.157 14.6462Z" fill="#655E67"/>
<path d="M33.2416 24.1169C33.0358 24.1169 32.831 24.0333 32.682 23.8688C31.6727 22.7536 31.2836 21.3438 30.9074 19.9803C30.8099 19.6268 30.7177 19.2928 30.6148 18.9627C30.1752 17.5522 29.1962 16.3413 28.0599 15.8026C27.202 15.3962 26.3063 15.376 25.3974 15.7425C25.0103 15.8983 24.5711 15.7113 24.4154 15.325C24.2595 14.9385 24.4465 14.4988 24.8329 14.343C26.1305 13.8196 27.4695 13.8528 28.7062 14.439C30.234 15.1631 31.486 16.6863 32.0556 18.5136C32.1658 18.8674 32.2656 19.229 32.3621 19.5788C32.7066 20.8274 33.032 22.0067 33.8009 22.856C34.0805 23.1649 34.0568 23.642 33.7479 23.9217C33.6034 24.0525 33.4222 24.1169 33.2416 24.1169Z" fill="#655E67"/>
<path d="M25.2403 3.11462C24.3028 2.28962 23.2179 2.00808 22.0931 2.69783C21.4045 3.12009 20.5938 3.18259 19.9003 2.77244C19.3948 2.47341 18.841 2.30847 18.2603 2.30847C17.6796 2.30847 17.1258 2.47351 16.6202 2.77244C15.9268 3.18259 15.116 3.12009 14.4275 2.69783C13.3028 2.00818 12.2178 2.28972 11.2803 3.11462C9.81028 4.40837 9.2596 6.54783 11.0398 9.57673C12.3121 11.7416 14.0208 13.0769 15.429 13.1907C16.187 14.1386 20.3336 14.1386 21.0916 13.1907C22.4998 13.0769 24.2085 11.7416 25.4809 9.57673C27.261 6.54793 26.7104 4.40837 25.2403 3.11462Z" fill="#C77E67"/>
<path d="M23.8586 16.2244H12.6619C12.6619 16.2244 0 31.3702 0 37.5135C0 44.3862 6.10234 47.6916 9.36426 47.6916H27.1563C30.4182 47.6916 36.5206 44.3862 36.5206 37.5135C36.5205 31.3702 23.8586 16.2244 23.8586 16.2244Z" fill="#C77E67"/>
<path d="M25.2402 3.11458C24.3028 2.28958 23.2179 2.00804 22.0931 2.69778C22.021 2.74192 21.9474 2.78128 21.873 2.81741C21.9864 2.90657 22.098 3.0054 22.207 3.11458C23.5004 4.40833 23.9849 6.54778 22.4187 9.57669C21.2992 11.7415 19.7958 13.0769 18.5568 13.1907C18.3319 13.5104 17.7673 13.7218 17.0928 13.8259C18.599 14.0303 20.5891 13.8189 21.0914 13.1907C22.4996 13.0769 24.2083 11.7415 25.4807 9.57669C27.2609 6.54788 26.7104 4.40833 25.2402 3.11458Z" fill="#AC583E"/>
<path d="M23.8586 16.2242H20.9915C20.9915 16.2242 32.1318 31.37 32.1318 37.5134C32.1318 44.3861 26.7628 47.6914 23.8929 47.6914H27.1563C30.4182 47.6914 36.5205 44.3861 36.5205 37.5134C36.5205 31.3701 23.8586 16.2242 23.8586 16.2242Z" fill="#AC583E"/>
<path d="M25.7309 18.5516C24.6037 17.1158 23.8586 16.2242 23.8586 16.2242H12.6619C12.6619 16.2242 11.9168 17.1157 10.7897 18.5516H25.7309Z" fill="#AC583E"/>
<path d="M18.2603 14.8925C17.6211 14.8925 17.0616 14.5718 16.7702 14.0655C16.3431 13.7663 15.7218 12.9332 15.1917 10.4496C15.026 9.67362 14.914 8.92869 14.8587 8.23572C14.8256 7.8203 15.1355 7.45672 15.551 7.42362C15.9664 7.38924 16.3299 7.70047 16.3631 8.1158C16.4131 8.74344 16.5155 9.42254 16.6677 10.1346C17.0454 11.9051 17.463 12.6388 17.6118 12.7995C17.8329 12.8825 18.0045 13.0654 18.0713 13.2961C18.0964 13.3825 18.2537 13.3835 18.2604 13.3835C18.2671 13.3835 18.4245 13.3825 18.4496 13.2961C18.5164 13.0654 18.6882 12.8825 18.9092 12.7995C19.058 12.6389 19.4755 11.9053 19.8533 10.1347C20.0047 9.42547 20.1076 8.74578 20.1593 8.11434C20.1932 7.69901 20.5594 7.38983 20.9727 7.42381C21.3881 7.45779 21.6973 7.82196 21.6632 8.23729C21.6064 8.93309 21.494 9.67733 21.3291 10.4496C20.799 12.9332 20.1776 13.7663 19.7504 14.0655C19.4591 14.5719 18.8996 14.8925 18.2603 14.8925Z" fill="#7B3F2C"/>
<path d="M22.0743 27.8553H20.77C20.669 27.2877 20.4393 26.7543 20.0938 26.2908H22.0743C22.4911 26.2908 22.8288 25.953 22.8288 25.5363C22.8288 25.1196 22.491 24.7817 22.0743 24.7817H14.4461C14.0293 24.7817 13.6916 25.1195 13.6916 25.5362C13.6916 25.9529 14.0294 26.2908 14.4461 26.2908H17.0949C17.6891 26.2913 18.2475 26.5229 18.6678 26.943C18.9272 27.2023 19.1141 27.5147 19.2198 27.8554H14.4461C14.0293 27.8554 13.6916 28.1932 13.6916 28.6099C13.6916 29.0266 14.0294 29.3644 14.4461 29.3644H19.19C18.8732 30.2742 18.0119 30.9288 17.0012 30.9288H15.4347C14.9578 30.9288 14.5328 31.1956 14.3254 31.625C14.1181 32.0544 14.1735 32.5531 14.4701 32.9266L19.0766 38.7254C19.2256 38.9129 19.4457 39.0107 19.6679 39.0107C19.8323 39.0107 19.9979 38.9571 20.1367 38.8469C20.463 38.5877 20.5174 38.113 20.2582 37.7867L16.0091 32.4377H17.0012C18.8495 32.4377 20.396 31.1157 20.752 29.3643H22.0743C22.4911 29.3643 22.8288 29.0265 22.8288 28.6098C22.8289 28.1931 22.4911 27.8553 22.0743 27.8553Z" fill="#F0E9E6"/>
<path d="M9.91846 14.2501C9.91846 15.3405 10.8023 16.2242 11.8926 16.2242H24.6279C25.7183 16.2242 26.6021 15.3404 26.6021 14.2501C26.6021 13.1598 25.7182 12.276 24.6279 12.276H11.8926C10.8022 12.276 9.91846 13.1598 9.91846 14.2501Z" fill="#655E67"/>
<path d="M24.6279 12.276H21.8478C22.9381 12.276 23.822 13.1599 23.822 14.2501C23.822 15.3404 22.9381 16.2242 21.8478 16.2242H24.6279C25.7183 16.2242 26.6021 15.3404 26.6021 14.2501C26.6021 13.1599 25.7183 12.276 24.6279 12.276Z" fill="#544F56"/>
<path d="M39.4029 42.8132H26.2285C24.8815 42.8132 23.7894 43.9053 23.7894 45.2524C23.7894 46.5995 24.8815 47.6916 26.2285 47.6916H39.4029C40.75 47.6916 41.8421 46.5995 41.8421 45.2524C41.8421 43.9052 40.75 42.8132 39.4029 42.8132Z" fill="#F7E365"/>
<path d="M39.403 42.8132H36.6051C37.9522 42.8132 39.0443 43.9053 39.0443 45.2524C39.0443 46.5996 37.9522 47.6916 36.6051 47.6916H39.403C40.75 47.6916 41.8421 46.5995 41.8421 45.2524C41.8421 43.9052 40.75 42.8132 39.403 42.8132Z" fill="#ECC52E"/>
<path d="M39.4029 37.9347H26.2285C24.8815 37.9347 23.7894 39.0268 23.7894 40.3739C23.7894 41.7209 24.8815 42.813 26.2285 42.813H39.4029C40.75 42.813 41.8421 41.7209 41.8421 40.3739C41.8421 39.0268 40.75 37.9347 39.4029 37.9347Z" fill="#F7E365"/>
<path d="M39.4029 40.9457H26.2285C25.2122 40.9457 24.3414 40.324 23.9748 39.4402C23.8555 39.7278 23.7894 40.0431 23.7894 40.3739C23.7894 41.7209 24.8815 42.813 26.2285 42.813H39.4029C40.75 42.813 41.8421 41.7209 41.8421 40.3739C41.8421 40.0431 41.7759 39.7278 41.6567 39.4402C41.2901 40.324 40.4193 40.9457 39.4029 40.9457Z" fill="#ECC52E"/>
<path d="M39.403 37.9347H36.6051C37.9522 37.9347 39.0443 39.0268 39.0443 40.3739C39.0443 41.7209 37.9522 42.813 36.6051 42.813H39.403C40.75 42.813 41.8421 41.7209 41.8421 40.3739C41.8421 39.0268 40.75 37.9347 39.403 37.9347Z" fill="#ECC52E"/>
<path d="M49.6728 44.0322L43.0856 32.623C42.4121 31.4564 40.9203 31.0565 39.7536 31.7302C38.587 32.4037 38.1873 33.8955 38.8608 35.0622L45.448 46.4716C46.1216 47.6382 47.6134 48.038 48.78 47.3643C49.9467 46.6907 50.3464 45.1989 49.6728 44.0322Z" fill="#F7E365"/>
<path d="M49.6728 44.0322L48.2739 41.6093C48.9474 42.7759 48.5477 44.2677 47.3811 44.9413C46.2145 45.6148 44.7227 45.2151 44.0491 44.0485L45.448 46.4715C46.1215 47.6381 47.6133 48.0379 48.7799 47.3642C49.9466 46.6907 50.3463 45.1988 49.6728 44.0322Z" fill="#ECC52E"/>
</g>
<defs>
<clipPath id="clip0">
<rect width="50" height="50" fill="white"/>
</clipPath>
</defs>
</svg>
