<svg width="50" height="50" viewBox="0 0 50 50" fill="none" xmlns="http://www.w3.org/2000/svg">
<g clip-path="url(#clip0)">
<path d="M11.0723 12.0557L37.9007 27.5455L35.5657 31.5897C35.1513 32.3074 34.4688 32.8311 33.6682 33.0456C32.8677 33.2601 32.0147 33.1478 31.297 32.7334L9.88106 20.3686C9.16331 19.9542 8.63959 19.2716 8.42509 18.4711C8.2106 17.6705 8.3229 16.8176 8.7373 16.0998L11.0723 12.0557Z" fill="#17ACE8"/>
<path d="M18.8491 4.83679L49.3154 22.427L44.2451 31.2088L11.0726 12.0561L14.5804 5.98054C14.9948 5.2628 15.6773 4.73907 16.4779 4.52458C17.2784 4.31008 18.1314 4.42239 18.8491 4.83679Z" fill="#0D70B2"/>
<path d="M35.5668 31.5903C35.4991 31.7053 35.4242 31.8159 35.3426 31.9215C35.3512 31.9266 35.3582 31.9325 35.3664 31.9372C36.531 32.6095 37.915 32.7917 39.2139 32.4437C40.5128 32.0956 41.6202 31.2459 42.2926 30.0813L37.9016 27.5461L35.5668 31.5903Z" fill="#FEDB41"/>
<path d="M40.7059 23.3105C40.5134 23.6437 40.424 24.0265 40.4492 24.4105C40.4743 24.7945 40.6127 25.1624 40.8469 25.4677C41.0812 25.773 41.4007 26.002 41.7651 26.1257C42.1295 26.2494 42.5224 26.2622 42.894 26.1626C43.2657 26.0629 43.5995 25.8553 43.8532 25.5659C44.1068 25.2765 44.269 24.9184 44.3191 24.5369C44.3692 24.1553 44.305 23.7675 44.1347 23.4225C43.9643 23.0774 43.6955 22.7906 43.3621 22.5984C42.9154 22.3408 42.3847 22.2711 41.8866 22.4046C41.3885 22.5381 40.9638 22.864 40.7059 23.3105Z" fill="#00DDC1"/>
<path d="M17.4324 20.9128C17.3127 20.9128 17.195 20.8811 17.0914 20.821L11.4883 17.5858C11.4099 17.5413 11.3411 17.4817 11.2859 17.4104C11.2307 17.3392 11.1901 17.2577 11.1665 17.1707C11.1428 17.0837 11.1367 16.9929 11.1483 16.9035C11.1599 16.8141 11.1891 16.7278 11.2342 16.6498C11.2792 16.5717 11.3393 16.5033 11.4109 16.4486C11.4825 16.3938 11.5643 16.3537 11.6514 16.3307C11.7386 16.3076 11.8295 16.3021 11.9188 16.3143C12.0081 16.3265 12.0941 16.3563 12.1719 16.4019L17.7735 19.6366C17.9038 19.712 18.0057 19.8282 18.0632 19.9673C18.1208 20.1065 18.1308 20.2607 18.0918 20.4061C18.0527 20.5516 17.9668 20.68 17.8473 20.7716C17.7278 20.8632 17.5814 20.9129 17.4309 20.9128H17.4324Z" fill="#E1E4FB"/>
<path d="M0.683594 22.4113H2.73438C3.35598 22.4113 3.95212 22.6582 4.39166 23.0977C4.83119 23.5373 5.07812 24.1334 5.07812 24.755V43.2382C5.07812 43.8598 4.83119 44.4559 4.39166 44.8955C3.95212 45.335 3.35598 45.582 2.73438 45.582H0.683594V22.4113Z" fill="#0D70B2"/>
<path d="M5.07812 26.3207H9.47266V40.3832H5.07812V26.3207Z" fill="#C5C9F7"/>
<path d="M20.9246 26.7449L18.9516 30.1089C18.6749 30.5781 18.2809 30.9671 17.8084 31.2379C17.3358 31.5086 16.8009 31.6517 16.2563 31.6531H9.47266V36.3406H16.2555C17.6172 36.3376 18.9546 35.9801 20.1363 35.3034C21.3179 34.6266 22.303 33.6538 22.9945 32.4808L24.984 29.0886L20.9246 26.7449Z" fill="#E1E4FB"/>
<path d="M49.6582 21.8359L34.777 13.2422C34.62 13.153 34.4342 13.1294 34.26 13.1767C34.0858 13.224 33.9373 13.3383 33.8471 13.4946C33.7568 13.651 33.7321 13.8367 33.7782 14.0112C33.8243 14.1857 33.9376 14.3349 34.0934 14.4262L48.3824 22.6762L43.9961 30.2754L39.5754 27.723L38.2422 26.9531L23.1496 18.2398L12.0063 11.8063L15.1723 6.32266C15.4966 5.76253 16.03 5.35395 16.6552 5.18654C17.2804 5.01914 17.9466 5.10658 18.5074 5.42969L23.3863 8.24688C23.4641 8.29247 23.5501 8.32223 23.6394 8.33444C23.7288 8.34666 23.8196 8.34108 23.9068 8.31804C23.9939 8.29499 24.0757 8.25494 24.1473 8.20018C24.2189 8.14542 24.279 8.07703 24.3241 7.99896C24.3691 7.92088 24.3983 7.83466 24.4099 7.74526C24.4216 7.65586 24.4154 7.56505 24.3918 7.47804C24.3681 7.39104 24.3275 7.30957 24.2723 7.23832C24.2171 7.16707 24.1483 7.10745 24.0699 7.06289L19.191 4.2457C18.316 3.74183 17.2769 3.60555 16.3016 3.86676C15.3263 4.12796 14.4943 4.76533 13.9883 5.63906L10.4805 11.7145L8.14531 15.7586C7.64164 16.6337 7.5056 17.6729 7.76702 18.6483C8.02844 19.6236 8.66599 20.4554 9.53984 20.9613L19.9863 26.9922L18.3617 29.7625C18.1456 30.1292 17.8378 30.4333 17.4684 30.6449C17.0991 30.8564 16.6811 30.9682 16.2555 30.9691H10.1562V26.3207C10.1562 26.1394 10.0842 25.9655 9.95603 25.8373C9.82783 25.7091 9.65396 25.6371 9.47266 25.6371H5.76172V24.7551C5.76079 23.9525 5.44154 23.183 4.874 22.6154C4.30647 22.0479 3.53699 21.7287 2.73438 21.7277H0.683594C0.593809 21.7277 0.504894 21.7453 0.421933 21.7797C0.338972 21.814 0.263593 21.8644 0.200106 21.9278C0.136618 21.9913 0.0862666 22.0667 0.051931 22.1497C0.0175954 22.2326 -5.12381e-05 22.3215 1.11745e-07 22.4113V45.582C-5.12381e-05 45.6718 0.0175954 45.7607 0.051931 45.8437C0.0862666 45.9267 0.136618 46.002 0.200106 46.0655C0.263593 46.129 0.338972 46.1794 0.421933 46.2137C0.504894 46.248 0.593809 46.2657 0.683594 46.2656H2.73438C3.53699 46.2647 4.30647 45.9454 4.874 45.3779C5.44154 44.8104 5.76079 44.0409 5.76172 43.2383V41.0668H9.47266C9.65396 41.0668 9.82783 40.9948 9.95603 40.8666C10.0842 40.7384 10.1562 40.5645 10.1562 40.3832V37.0238H16.2555C16.4368 37.0238 16.6106 36.9518 16.7388 36.8236C16.867 36.6954 16.9391 36.5215 16.9391 36.3402C16.9391 36.1589 16.867 35.9851 16.7388 35.8569C16.6106 35.7287 16.4368 35.6566 16.2555 35.6566H10.1562V32.3363H16.2555C16.9194 32.3349 17.5715 32.1606 18.1476 31.8306C18.7237 31.5006 19.2039 31.0263 19.541 30.4543L21.1719 27.6766L24.0477 29.3367L22.407 32.1348C22.1115 32.6377 21.755 33.1023 21.3457 33.518C21.2185 33.6472 21.1478 33.8216 21.1492 34.0029C21.1506 34.1842 21.2239 34.3575 21.3531 34.4848C21.4823 34.612 21.6567 34.6827 21.8381 34.6813C22.0194 34.6799 22.1927 34.6065 22.3199 34.4773C22.8084 33.9813 23.2337 33.4268 23.5863 32.8266L25.232 30.0203L30.9582 33.3262C31.5347 33.6607 32.1893 33.8372 32.8559 33.8379C33.1909 33.8377 33.5245 33.7936 33.848 33.7066C34.4691 33.5409 35.0378 33.2198 35.5004 32.7734C36.2494 33.1209 37.065 33.3014 37.8906 33.3023C38.3966 33.302 38.9004 33.2353 39.3891 33.1039C40.6354 32.7727 41.7329 32.0292 42.5027 30.9945L43.9027 31.8027C43.9805 31.8477 44.0663 31.8769 44.1554 31.8886C44.2444 31.9004 44.3349 31.8944 44.4216 31.8712C44.5084 31.8479 44.5897 31.8078 44.6609 31.7531C44.7321 31.6984 44.7919 31.6302 44.8367 31.5523L49.907 22.7707C49.9521 22.693 49.9814 22.6072 49.9932 22.5181C50.0051 22.4291 49.9993 22.3386 49.9762 22.2518C49.9531 22.165 49.9131 22.0836 49.8586 22.0122C49.804 21.9409 49.7359 21.881 49.6582 21.8359ZM4.39453 43.2383C4.39412 43.6785 4.21908 44.1005 3.90783 44.4117C3.59658 44.723 3.17455 44.898 2.73438 44.8984H1.36719V23.0949H2.73438C3.17455 23.0953 3.59658 23.2704 3.90783 23.5816C4.21908 23.8929 4.39412 24.3149 4.39453 24.7551V43.2383ZM8.78906 39.6996H5.76172V27.0043H8.78906V39.6996ZM31.6406 32.1422L10.2234 19.7773C9.66318 19.4531 9.25443 18.9198 9.08687 18.2946C8.91932 17.6693 9.00664 17.0031 9.32969 16.4422L11.3219 12.9902L30.9496 24.3223L36.9672 27.7965L34.9746 31.25L34.9719 31.2543C34.9199 31.3425 34.8624 31.4273 34.7996 31.5082V31.5109C34.4391 31.9813 33.92 32.3046 33.3389 32.4208C32.7577 32.5369 32.1542 32.4379 31.6406 32.1422ZM39.0379 31.7832C38.1425 32.0253 37.1932 31.9754 36.3281 31.6406L38.1535 28.4793L41.3148 30.3043C40.7325 31.0273 39.9345 31.5455 39.0371 31.7832H39.0379Z" fill="black"/>
<path d="M27.9051 10.8551L29.5746 11.8188C29.6524 11.8644 29.7384 11.8941 29.8277 11.9063C29.9171 11.9186 30.0079 11.913 30.0951 11.8899C30.1822 11.8669 30.264 11.8268 30.3356 11.7721C30.4072 11.7173 30.4673 11.6489 30.5123 11.5709C30.5574 11.4928 30.5866 11.4066 30.5982 11.3172C30.6098 11.2278 30.6037 11.1369 30.5801 11.0499C30.5564 10.9629 30.5158 10.8815 30.4606 10.8102C30.4054 10.739 30.3366 10.6794 30.2582 10.6348L28.5887 9.67112C28.4317 9.5819 28.2459 9.55837 28.0717 9.60567C27.8975 9.65297 27.7491 9.76725 27.6588 9.92358C27.5685 10.0799 27.5438 10.2656 27.5899 10.4401C27.636 10.6146 27.7493 10.7638 27.9051 10.8551Z" fill="black"/>
<path d="M41.0758 26.5598C41.4739 26.7911 41.926 26.913 42.3863 26.9133C42.6174 26.9131 42.8475 26.8827 43.0707 26.8227C43.6582 26.6654 44.173 26.3092 44.5273 25.8148C44.8816 25.3205 45.0536 24.7186 45.0139 24.1117C44.9741 23.5048 44.7252 22.9304 44.3095 22.4865C43.8938 22.0425 43.337 21.7564 42.734 21.677C42.131 21.5975 41.5191 21.7296 41.0026 22.0507C40.4861 22.3718 40.0969 22.8621 39.9013 23.438C39.7057 24.0139 39.7159 24.6398 39.93 25.209C40.1442 25.7783 40.5491 26.2557 41.0758 26.5598ZM41.298 23.6524C41.3808 23.509 41.491 23.3834 41.6225 23.2829C41.754 23.1823 41.904 23.1088 42.0641 23.0665C42.1711 23.0378 42.2814 23.0233 42.3922 23.0231C42.6702 23.0232 42.9404 23.1149 43.161 23.2842C43.3815 23.4535 43.54 23.6908 43.6119 23.9593C43.6838 24.2279 43.6651 24.5126 43.5587 24.7695C43.4523 25.0263 43.2641 25.2408 43.0233 25.3798C42.7825 25.5188 42.5026 25.5744 42.227 25.5381C41.9514 25.5017 41.6954 25.3755 41.4989 25.1789C41.3023 24.9822 41.1761 24.7263 41.1399 24.4506C41.1037 24.175 41.1594 23.8951 41.2984 23.6544L41.298 23.6524Z" fill="black"/>
<path d="M17.7735 19.6367L12.1719 16.402C12.0941 16.3564 12.0081 16.3266 11.9188 16.3144C11.8295 16.3022 11.7386 16.3078 11.6514 16.3308C11.5643 16.3539 11.4825 16.3939 11.4109 16.4487C11.3393 16.5034 11.2792 16.5718 11.2342 16.6499C11.1891 16.728 11.1599 16.8142 11.1483 16.9036C11.1367 16.993 11.1428 17.0838 11.1665 17.1708C11.1901 17.2578 11.2307 17.3393 11.2859 17.4105C11.3411 17.4818 11.4099 17.5414 11.4883 17.586L17.0914 20.8203C17.2478 20.9021 17.4297 20.9202 17.5991 20.8709C17.7686 20.8216 17.9124 20.7087 18.0005 20.5559C18.0886 20.403 18.1141 20.2219 18.0718 20.0506C18.0295 19.8793 17.9226 19.731 17.7735 19.6367Z" fill="black"/>
</g>
<defs>
<clipPath id="clip0">
<rect width="50" height="50" fill="white"/>
</clipPath>
</defs>
</svg>
