<svg width="46" height="40" viewBox="0 0 46 40" fill="none" xmlns="http://www.w3.org/2000/svg">
<path d="M33.9029 28.6426L45.8259 12.7956L14.7092 0.358887L7.60576 18.1317L19.7973 23.0046L18.2984 26.7427C18.1777 26.7339 18.057 26.7271 17.9354 26.7271C15.8586 26.7271 14.0942 28.0839 13.4791 29.9572H8.82412V23.4854H0V39.6408H8.82412V32.877H13.479C14.094 34.7504 15.8586 36.107 17.9354 36.107C20.5212 36.107 22.6253 34.0039 22.6253 31.4171C22.6253 29.999 21.9917 28.7271 20.9932 27.8658L22.5085 24.0878L33.9029 28.6426ZM31.4466 19.5819L34.1579 20.6651L33.0737 23.3765L30.3633 22.2933L31.4466 19.5819Z" fill="#77D3F5"/>
</svg>
