<svg width="50" height="50" viewBox="0 0 50 50" fill="none" xmlns="http://www.w3.org/2000/svg">
<g clip-path="url(#clip0)">
<path d="M18.2153 36.8354L37.8118 17.2389C41.0159 18.4942 44.7979 17.8293 47.3866 15.2404C49.9747 12.6524 50.6397 8.87026 49.3851 5.6656L44.8642 10.1865L40.8805 9.11958L39.8137 5.13591L44.3345 0.615048C41.1298 -0.63963 37.3478 0.0253063 34.7597 2.61347C32.1709 5.20222 31.5059 8.98432 32.7613 12.1883L13.1647 31.7848C9.7176 30.3319 5.58482 31.0094 2.77644 33.8177C-0.925481 37.5197 -0.925481 43.5218 2.77644 47.2237C6.47837 50.9256 12.4805 50.9256 16.1824 47.2237C18.9908 44.4153 19.6682 40.2824 18.2153 36.8354ZM6.95414 43.046C5.55923 41.6511 5.55992 39.3897 6.95414 37.9954C8.34906 36.6005 10.6098 36.6006 12.0047 37.9954C13.3996 39.3903 13.3996 41.6511 12.0047 43.046C10.6105 44.4401 8.34906 44.4408 6.95414 43.046Z" fill="#60E2F4"/>
<path d="M16.1824 47.2236C12.4805 50.9255 6.47835 50.9255 2.77643 47.2236L6.95413 43.0459C8.34904 44.4408 10.6104 44.4401 12.0047 43.0459C13.3996 41.651 13.3995 39.3903 12.0047 37.9954L40.8804 9.1195L44.8641 10.1864L49.385 5.66553C50.6396 8.87029 49.9747 12.6523 47.3865 15.2404C44.7978 17.8291 41.0157 18.4941 37.8117 17.2388L18.2152 36.8353C19.6682 40.2824 18.9908 44.4152 16.1824 47.2236Z" fill="#29C5EC"/>
<path d="M36.356 34.2843L9.3929 7.32123L11.2497 5.46441L4.31823 0.000976562L0.000976562 4.31813L5.46451 11.2497L7.32133 9.3928L34.2844 36.3559L36.356 34.2843Z" fill="#CDDBF9"/>
<path d="M35.3193 35.3193L2.1587 2.15869L0.00012207 4.31727L5.46365 11.2489L7.32048 9.39193L34.2835 36.355L35.3193 35.3193Z" fill="#F3F6FF"/>
<path d="M29.7301 36.8122L34.7807 41.8627L36.9745 41.833L41.8669 36.9406L41.8628 34.7806L36.8122 29.7301L29.7301 36.8122Z" fill="#3C4A83"/>
<path d="M29.7301 36.8124L34.7807 41.8628L36.9745 41.8332L39.4038 39.4039L33.2712 33.2712L29.7301 36.8124Z" fill="#48588B"/>
<path d="M34.7807 41.8627L41.4505 48.5325C42.429 49.511 43.7106 49.9999 44.9923 49.9999C46.2739 49.9999 47.5555 49.511 48.5332 48.5332C50.4888 46.5776 50.4888 43.4066 48.5326 41.4504L41.8628 34.7806L34.7807 41.8627Z" fill="#EA0016"/>
<path d="M34.7807 41.8626L41.4505 48.5324C42.429 49.5109 43.7106 49.9998 44.9922 49.9998C46.2739 49.9998 47.5555 49.5109 48.5332 48.5331L38.3217 38.3217L34.7807 41.8626Z" fill="#FF641A"/>
</g>
<defs>
<clipPath id="clip0">
<rect width="50" height="50" fill="white"/>
</clipPath>
</defs>
</svg>
