<svg width="50" height="50" viewBox="0 0 50 50" fill="none" xmlns="http://www.w3.org/2000/svg">
<path d="M27.6634 26.0318C28.2394 26.3264 28.8811 26.4821 29.5469 26.4821C30.6501 26.4821 31.6874 26.0538 32.4693 25.276L34.1525 26.959C38.3179 25.4989 43.1356 26.4337 46.4655 29.7634C49.2673 32.5653 50.3723 36.4202 49.7825 40.054C49.7175 40.4541 49.4342 40.7842 49.0485 40.9087C48.6628 41.0334 48.2395 40.9321 47.9529 40.6453L45.4537 38.1461C43.4184 36.1108 40.1183 36.1108 38.083 38.1461C36.0476 40.1814 36.0476 43.4815 38.083 45.5167L40.5823 48.016C40.869 48.3027 40.9712 48.7261 40.8463 49.1119C40.7216 49.4979 40.3911 49.7806 39.9907 49.8456C36.3572 50.4354 32.502 49.3304 29.7004 46.5286C26.321 43.1492 25.4115 38.238 26.9657 34.0309L23.3151 30.3802L27.6634 26.0318Z" fill="#77D3F5"/>
<path d="M21.0111 19.4168L16.6811 23.7468L1.54011 8.60605C-0.428652 6.63729 -0.428652 3.44535 1.54011 1.47659C3.50886 -0.492167 6.7008 -0.492167 8.66956 1.47659L21.722 14.5289C20.4055 15.8523 20.1683 17.8504 21.0111 19.4168Z" fill="#77D3F5"/>
<path d="M30.6683 23.4592C30.3587 23.7688 29.9527 23.9237 29.5469 23.9237C29.1411 23.9237 28.7351 23.7688 28.4256 23.4592L27.5217 22.5554L11.4209 38.6561L12.1735 39.4087C12.8592 40.0942 12.7741 41.2315 11.9925 41.807L5.42339 46.6449C4.7921 47.1098 3.91603 47.0437 3.36167 46.4894L0.572453 43.7C0.0180894 43.1456 -0.0479224 42.2694 0.41689 41.6383L5.25469 35.0691C5.83021 34.2878 6.96674 34.2018 7.65295 34.8882L8.40552 35.6409L24.5063 19.5401L23.5388 18.5727C22.9194 17.9533 22.9194 16.9493 23.5388 16.33L38.3922 1.4766C40.3609 -0.492161 43.5529 -0.492161 45.5216 1.4766C47.4904 3.44535 47.4904 6.63729 45.5216 8.60605L30.6683 23.4592Z" fill="#77D3F5"/>
</svg>
