<svg width="50" height="50" viewBox="0 0 50 50" fill="none" xmlns="http://www.w3.org/2000/svg">
<path d="M49.0534 23.0633L45.5586 21.0456C45.2159 20.8478 44.7778 20.9651 44.5801 21.3078C44.3822 21.6504 44.4996 22.0885 44.8423 22.2863L48.3371 24.304C48.7128 24.5671 48.6355 25.0268 48.1938 25.1522L47.0915 25.3629C44.2479 25.9064 41.6122 27.2227 39.4694 29.1696L38.4002 30.1412C38.1064 30.4415 37.6519 30.5437 37.2753 30.3201L18.8975 19.7095C18.5549 19.5117 18.1167 19.629 17.9189 19.9717C17.7211 20.3143 17.8385 20.7524 18.1812 20.9502L36.559 31.5607C36.8051 31.7027 37.0682 31.7947 37.3357 31.8404L34.5811 36.6117C33.8569 37.8659 32.2475 38.2974 30.9932 37.5731L23.8153 33.4289C23.8149 33.4287 23.8146 33.4285 23.8143 33.4283L6.50518 23.4348C5.25098 22.7107 4.81973 21.1012 5.54385 19.847L8.41768 14.8693C8.66631 15.3021 9.0249 15.6639 9.46855 15.9199L15.3586 19.3206C15.7012 19.5182 16.1393 19.401 16.3371 19.0584C16.535 18.7158 16.4176 18.2777 16.0749 18.0799L10.1848 14.6792C9.85273 14.4875 9.61523 14.1779 9.51602 13.8076C9.4168 13.4375 9.46768 13.051 9.65908 12.7192L12.7876 7.3003C13.5784 5.86427 15.5501 5.33517 16.9529 6.18429L42.0939 20.6994C42.4306 20.8954 42.8734 20.783 43.0725 20.4372C43.2703 20.0946 43.1529 19.6566 42.8103 19.4587L17.6691 4.94366C16.6323 4.34503 15.4246 4.18605 14.2683 4.49591C13.1119 4.80577 12.1454 5.54737 11.5469 6.58409L4.30312 19.1307C3.18398 21.069 3.85049 23.5564 5.78887 24.6755L13.7348 29.2631V33.148C13.7348 34.8707 14.5655 36.4028 15.8475 37.3653L14.3354 40.2526C13.9461 40.1131 13.5271 40.0366 13.0905 40.0366C11.255 40.0366 9.72793 41.3796 9.43828 43.1343H5.90791C5.51397 40.8742 3.6792 39.0827 1.3334 38.8089C0.99502 38.7691 0.654883 38.8765 0.400391 39.103C0.145996 39.3295 0 39.6546 0 39.9951V48.0933C0 48.4338 0.145898 48.7589 0.400391 48.9854C0.654688 49.2121 0.997559 49.3193 1.3333 49.2795C3.81182 48.9902 5.72041 47.007 5.96123 44.5668H9.48252C9.85967 46.2109 11.3336 47.4414 13.0904 47.4414C13.3778 47.4414 13.6641 47.4083 13.9413 47.3429C14.3264 47.2522 14.5649 46.8663 14.4741 46.4814C14.3833 46.0962 13.9975 45.8575 13.6126 45.9485C13.443 45.9886 13.2673 46.0088 13.0904 46.0088C11.8389 46.0088 10.8206 44.9905 10.8206 43.739C10.8206 42.4874 11.8389 41.4692 13.0904 41.4692C14.342 41.4692 15.3602 42.4874 15.3602 43.739C15.3602 43.9321 15.336 44.1236 15.2884 44.3081C15.1896 44.6912 15.4199 45.0817 15.8029 45.1807C16.186 45.2794 16.5767 45.0492 16.6756 44.6661C16.7533 44.3648 16.7928 44.0528 16.7928 43.7391C16.7928 42.6488 16.3188 41.6675 15.5665 40.9893L17.1 38.0611C17.6915 38.2914 18.3338 38.4192 19.0058 38.4192C21.1751 38.4192 23.0982 37.0806 23.8915 35.1272L30.2768 38.8137C31.2177 39.3577 32.3168 39.4986 33.3569 39.2192C34.1425 39.0087 34.8312 38.5782 35.3552 37.98L38.3662 39.7184C38.7414 39.9351 39.1517 40.0379 39.5566 40.0379C40.379 40.0379 41.1797 39.6132 41.623 38.8545C43.755 39.986 46.5974 39.1367 47.7627 37.027C49.0044 34.8763 48.3313 32.1372 46.2764 30.7956C46.6422 30.2191 46.7642 29.526 46.5833 28.8645C46.4182 28.2481 46.0228 27.7328 45.4702 27.4139L45.313 27.3232C45.9784 27.0898 46.6621 26.9033 47.3603 26.7698C48.4615 26.6271 49.8011 26.329 49.9726 25.0164C50.1058 24.2292 49.7448 23.4625 49.0534 23.0633ZM1.43262 47.8163V40.2722C3.23027 40.61 4.55488 42.1866 4.55488 44.0442C4.55488 45.9019 3.23037 47.4785 1.43262 47.8163ZM18.3475 31.9262L20.1002 32.9381C20.0365 33.4858 19.5704 33.9124 19.006 33.9124C18.3981 33.9124 17.9036 33.4179 17.9036 32.8102C17.9036 32.4589 18.0725 32.1319 18.3475 31.9262ZM19.006 36.9865C16.8894 36.9865 15.1674 35.2645 15.1674 33.148V30.0902L17.0634 31.1849C16.6891 31.6332 16.471 32.2058 16.471 32.8103C16.471 34.208 17.6081 35.3451 19.006 35.3451C20.0979 35.3451 21.0309 34.6511 21.3868 33.681L22.6353 34.4018C22.1088 35.9255 20.6549 36.9865 19.006 36.9865ZM46.5222 36.3107C46.091 37.0574 45.3948 37.5916 44.562 37.8149C43.8128 38.0155 43.0338 37.9421 42.3413 37.6117L45.5584 32.0396C46.9298 32.9837 47.3687 34.8443 46.5222 36.3107ZM44.7541 28.6545C45.2047 28.9025 45.3704 29.5211 45.1041 29.961L40.3892 38.1276C40.1254 38.5843 39.5392 38.7413 39.0826 38.4776L36.1392 36.7782L39.354 31.21C40.6355 29.9977 42.0659 28.7778 43.6577 28.0215L44.7541 28.6545Z" fill="white"/>
<path d="M32.3617 22.8921C32.9221 22.8921 33.3763 22.4378 33.3763 21.8774C33.3763 21.3171 32.9221 20.8628 32.3617 20.8628C31.8013 20.8628 31.347 21.3171 31.347 21.8774C31.347 22.4378 31.8013 22.8921 32.3617 22.8921Z" fill="white"/>
<path d="M35.609 24.6829C36.1694 24.6829 36.6237 24.2286 36.6237 23.6683C36.6237 23.1079 36.1694 22.6536 35.609 22.6536C35.0486 22.6536 34.5944 23.1079 34.5944 23.6683C34.5944 24.2286 35.0486 24.6829 35.609 24.6829Z" fill="white"/>
<path d="M26.6694 7.21721C27.2298 7.21721 27.6841 6.76291 27.6841 6.20256C27.6841 5.64221 27.2298 5.18791 26.6694 5.18791C26.1091 5.18791 25.6548 5.64221 25.6548 6.20256C25.6548 6.76301 26.1091 7.21721 26.6694 7.21721Z" fill="white"/>
<path d="M32.5284 11.5989C32.841 11.8361 33.2919 11.7773 33.5318 11.4601C35.8636 8.3796 35.8636 4.07677 33.5318 0.996199C33.2932 0.680868 32.8438 0.618758 32.5284 0.857332C32.213 1.0961 32.1508 1.54542 32.3895 1.86085C34.3359 4.43233 34.3359 8.02403 32.3895 10.5954C32.1508 10.9108 32.2129 11.3602 32.5284 11.5989Z" fill="white"/>
<path d="M29.1487 9.49893C29.4387 9.7668 29.8921 9.74971 30.1609 9.4584C31.833 7.64698 31.833 4.80909 30.1609 2.99776C29.8927 2.70723 29.4394 2.68907 29.1487 2.95723C28.858 3.22559 28.8399 3.67882 29.1082 3.96944C30.2773 5.23594 30.2773 7.22022 29.1082 8.48673C28.8398 8.77735 28.858 9.23057 29.1487 9.49893Z" fill="white"/>
</svg>
