<svg width="81" height="81" viewBox="0 0 81 81" fill="none" xmlns="http://www.w3.org/2000/svg">
<path d="M79.4665 37.3625L73.8049 34.0939C73.2498 33.7734 72.5401 33.9636 72.2197 34.5187C71.8992 35.0737 72.0894 35.7834 72.6445 36.1039L78.3061 39.3725C78.9147 39.7987 78.7896 40.5434 78.074 40.7465L76.2882 41.0879C71.6815 41.9683 67.4118 44.1007 63.9405 47.2548L62.2083 48.8288C61.7324 49.3153 60.996 49.4807 60.386 49.1186L30.6139 31.9294C30.0589 31.609 29.3491 31.799 29.0287 32.3542C28.7082 32.9091 28.8983 33.6188 29.4535 33.9393L59.2256 51.1283C59.6242 51.3585 60.0504 51.5075 60.4839 51.5815L56.0213 59.311C54.8482 61.3428 52.2409 62.0418 50.2089 60.8684L38.5808 54.1549C38.5802 54.1545 38.5797 54.1542 38.5791 54.1539L10.5384 37.9644C8.50658 36.7913 7.80796 34.1839 8.98103 32.1521L13.6366 24.0884C14.0394 24.7894 14.6203 25.3755 15.3391 25.7903L24.8809 31.2994C25.4359 31.6195 26.1456 31.4296 26.4661 30.8746C26.7866 30.3197 26.5965 29.61 26.0413 29.2894L16.4993 23.7803C15.9614 23.4698 15.5767 22.9683 15.4159 22.3684C15.2552 21.7688 15.3376 21.1426 15.6477 20.605L20.7159 11.8265C21.997 9.50013 25.1912 8.64299 27.4637 10.0186L68.1922 33.5331C68.7375 33.8506 69.455 33.6685 69.7774 33.1083C70.0979 32.5533 69.9077 31.8436 69.3526 31.5231L28.624 8.00875C26.9444 7.03897 24.9879 6.78141 23.1146 7.28339C21.2413 7.78537 19.6756 8.98676 18.7059 10.6662L6.97106 30.9917C5.15805 34.1317 6.23779 38.1613 9.37796 39.9743L22.2503 47.4062V53.6997C22.2503 56.4906 23.5962 58.9726 25.6729 60.5319L23.2233 65.2091C22.5927 64.9832 21.914 64.8594 21.2067 64.8594C18.2331 64.8594 15.7592 67.035 15.29 69.8776H9.57082C8.93262 66.2163 5.9603 63.314 2.16011 62.8704C1.61193 62.8059 1.06091 62.9799 0.648633 63.3469C0.236514 63.7138 0 64.2405 0 64.7921V77.9111C0 78.4628 0.236355 78.9894 0.648633 79.3563C1.06059 79.7236 1.61604 79.8974 2.15995 79.8328C6.17514 79.3641 9.26706 76.1514 9.65719 72.1982H15.3617C15.9727 74.8617 18.3604 76.8551 21.2065 76.8551C21.6721 76.8551 22.1358 76.8015 22.5849 76.6955C23.2087 76.5485 23.5952 75.9234 23.4481 75.2998C23.3009 74.6759 22.6759 74.2892 22.0524 74.4367C21.7776 74.5015 21.493 74.5343 21.2065 74.5343C19.179 74.5343 17.5294 72.8847 17.5294 70.8572C17.5294 68.8296 19.179 67.18 21.2065 67.18C23.234 67.18 24.8835 68.8296 24.8835 70.8572C24.8835 71.1701 24.8444 71.4803 24.7672 71.7792C24.6071 72.3998 24.9803 73.0324 25.6007 73.1927C26.2214 73.3526 26.8542 72.9798 27.0144 72.3591C27.1404 71.8709 27.2043 71.3656 27.2043 70.8573C27.2043 69.0911 26.4365 67.5014 25.2177 66.4026L27.702 61.6591C28.6602 62.0321 29.7007 62.239 30.7893 62.239C34.3037 62.239 37.4192 60.0705 38.7042 56.906L49.0483 62.8782C50.5726 63.7595 52.3532 63.9878 54.0382 63.5352C55.3108 63.1941 56.4266 62.4968 57.2754 61.5276L62.1533 64.3438C62.7611 64.6948 63.4257 64.8614 64.0818 64.8614C65.414 64.8614 66.7111 64.1734 67.4293 62.9443C70.8831 64.7772 75.4877 63.4015 77.3756 59.9837C79.3871 56.4996 78.2968 52.0623 74.9677 49.8889C75.5603 48.9549 75.7579 47.8321 75.465 46.7604C75.1974 45.7619 74.5569 44.9272 73.6617 44.4105L73.407 44.2635C74.485 43.8854 75.5926 43.5834 76.7236 43.3671C78.5077 43.1359 80.6777 42.653 80.9555 40.5266C81.1713 39.2513 80.5866 38.0093 79.4665 37.3625ZM2.32084 77.4624V65.2409C5.23304 65.7882 7.37891 68.3424 7.37891 71.3515C7.37891 74.361 5.2332 76.9152 2.32084 77.4624ZM29.7229 51.7204L32.5623 53.3597C32.4592 54.2469 31.7041 54.9381 30.7896 54.9381C29.805 54.9381 29.0039 54.137 29.0039 53.1525C29.0039 52.5834 29.2774 52.0538 29.7229 51.7204ZM30.7896 59.9182C27.3608 59.9182 24.5712 57.1284 24.5712 53.6997V48.7462L27.6427 50.5195C27.0363 51.2458 26.683 52.1734 26.683 53.1526C26.683 55.417 28.5251 57.2591 30.7896 57.2591C32.5587 57.2591 34.07 56.1348 34.6466 54.5632L36.6691 55.7309C35.8162 58.1993 33.4609 59.9182 30.7896 59.9182ZM75.3659 58.8233C74.6674 60.0331 73.5396 60.8984 72.1905 61.2601C70.9767 61.5852 69.7147 61.4662 68.5929 60.931L73.8046 51.9041C76.0263 53.4336 76.7374 56.4479 75.3659 58.8233ZM72.5016 46.4203C73.2316 46.822 73.5001 47.8242 73.0686 48.5369L65.4304 61.7666C65.0031 62.5066 64.0534 62.7609 63.3138 62.3338L58.5454 59.5808L63.7535 50.5602C65.8296 48.5962 68.1468 46.6201 70.7255 45.3948L72.5016 46.4203Z" fill="#77D3F5"/>
<path d="M52.426 37.0852C53.3338 37.0852 54.0697 36.3493 54.0697 35.4415C54.0697 34.5337 53.3338 33.7977 52.426 33.7977C51.5182 33.7977 50.7823 34.5337 50.7823 35.4415C50.7823 36.3493 51.5182 37.0852 52.426 37.0852Z" fill="#77D3F5"/>
<path d="M57.6865 39.9863C58.5944 39.9863 59.3303 39.2504 59.3303 38.3426C59.3303 37.4348 58.5944 36.6989 57.6865 36.6989C56.7787 36.6989 56.0428 37.4348 56.0428 38.3426C56.0428 39.2504 56.7787 39.9863 57.6865 39.9863Z" fill="#77D3F5"/>
<path d="M43.2045 11.6919C44.1123 11.6919 44.8482 10.9559 44.8482 10.0481C44.8482 9.14038 44.1123 8.40442 43.2045 8.40442C42.2967 8.40442 41.5608 9.14038 41.5608 10.0481C41.5608 10.9561 42.2967 11.6919 43.2045 11.6919Z" fill="#77D3F5"/>
<path d="M52.696 18.7903C53.2024 19.1746 53.9329 19.0792 54.3216 18.5653C58.099 13.575 58.099 6.60439 54.3216 1.61387C53.9349 1.10303 53.207 1.00241 52.696 1.3889C52.185 1.77571 52.0843 2.5036 52.4711 3.0146C55.6242 7.1804 55.6242 12.999 52.4711 17.1646C52.0843 17.6756 52.1849 18.4035 52.696 18.7903Z" fill="#77D3F5"/>
<path d="M47.2209 15.3883C47.6908 15.8222 48.4252 15.7945 48.8607 15.3226C51.5695 12.3881 51.5695 7.79074 48.8607 4.85638C48.4261 4.38573 47.6919 4.3563 47.2209 4.79073C46.75 5.22547 46.7207 5.95969 47.1553 6.4305C49.0493 8.48224 49.0493 11.6968 47.1553 13.7485C46.7205 14.2193 46.75 14.9535 47.2209 15.3883Z" fill="#77D3F5"/>
</svg>
