<svg width="86" height="86" viewBox="0 0 86 86" fill="none" xmlns="http://www.w3.org/2000/svg">
<path d="M64.9517 51.1302C58.9742 51.1302 54.1113 55.9931 54.1113 61.9706C54.1113 67.9481 58.9742 72.811 64.9517 72.811C70.9302 72.811 75.792 67.9481 75.792 61.9706C75.792 55.9931 70.9292 51.1302 64.9517 51.1302ZM64.9517 67.3908C61.9625 67.3908 59.5315 64.9598 59.5315 61.9706C59.5315 58.9814 61.9625 56.5504 64.9517 56.5504C67.9408 56.5504 70.3718 58.9814 70.3718 61.9706C70.3718 64.9599 67.9408 67.3908 64.9517 67.3908Z" fill="#11284A"/>
<path d="M27.9139 51.1302C21.9364 51.1302 17.0735 55.9931 17.0735 61.9706C17.0735 67.9481 21.9364 72.811 27.9139 72.811C33.8914 72.811 38.7542 67.9481 38.7542 61.9706C38.7542 55.9931 33.8914 51.1302 27.9139 51.1302ZM27.9139 67.3908C24.9247 67.3908 22.4937 64.9598 22.4937 61.9706C22.4937 58.9814 24.9247 56.5504 27.9139 56.5504C30.9022 56.5504 33.3341 58.9814 33.3341 61.9706C33.3341 64.9599 30.9031 67.3908 27.9139 67.3908Z" fill="#11284A"/>
<path d="M72.2518 20.1017C71.791 19.1866 70.8543 18.6093 69.8298 18.6093H55.5567V24.0295H68.1585L75.5381 38.7072L80.3819 36.2717L72.2518 20.1017Z" fill="#11284A"/>
<path d="M56.8215 59.3509H36.3152V64.7711H56.8215V59.3509Z" fill="#11284A"/>
<path d="M19.7835 59.3509H10.3887C8.89175 59.3509 7.67868 60.5642 7.67868 62.0609C7.67868 63.5579 8.89192 64.7709 10.3887 64.7709H19.7837C21.2806 64.7709 22.4937 63.5577 22.4937 62.0609C22.4937 60.564 21.2805 59.3509 19.7835 59.3509Z" fill="#11284A"/>
<path d="M85.4309 42.7832L80.1003 35.9176C79.5881 35.2563 78.7977 34.8697 77.9602 34.8697H58.2668V15.8991C58.2668 14.4022 57.0536 13.1891 55.5568 13.1891H10.3887C8.89175 13.1891 7.67868 14.4023 7.67868 15.8991C7.67868 17.3959 8.89192 18.6091 10.3887 18.6091H52.8467V37.5797C52.8467 39.0766 54.0599 40.2897 55.5567 40.2897H76.633L80.5798 45.3737V59.3506H73.0818C71.5849 59.3506 70.3718 60.5638 70.3718 62.0606C70.3718 63.5575 71.5851 64.7706 73.0818 64.7706H83.2898C84.7867 64.7706 85.9998 63.5574 86 62.0606V44.4454C86 43.8437 85.7994 43.2583 85.4309 42.7832Z" fill="#11284A"/>
<path d="M19.603 45.6198H7.13649C5.63955 45.6198 4.42648 46.8331 4.42648 48.3298C4.42648 49.8268 5.63972 51.0398 7.13649 51.0398H19.6028C21.0997 51.0398 22.3128 49.8266 22.3128 48.3298C22.313 46.8331 21.0997 45.6198 19.603 45.6198Z" fill="#11284A"/>
<path d="M25.8361 34.96H2.71001C1.21324 34.96 0 36.1733 0 37.6702C0 39.1671 1.21324 40.3802 2.71001 40.3802H25.8361C27.3331 40.3802 28.5461 39.167 28.5461 37.6702C28.5461 36.1734 27.3331 34.96 25.8361 34.96Z" fill="#11284A"/>
<path d="M30.2626 24.3004H7.13649C5.63955 24.3004 4.42648 25.5136 4.42648 27.0104C4.42648 28.5073 5.63972 29.7204 7.13649 29.7204H30.2626C31.7595 29.7204 32.9726 28.5072 32.9726 27.0104C32.9728 25.5136 31.7595 24.3004 30.2626 24.3004Z" fill="#11284A"/>
</svg>
