<svg width="36" height="38" viewBox="0 0 36 38" fill="none" xmlns="http://www.w3.org/2000/svg">
<g clip-path="url(#clip0)">
<path d="M35.0091 7.52111C34.7549 7.34148 34.4191 7.35057 34.1746 7.54451C33.927 7.74023 33.5251 7.90855 33.0683 8.0466C34.319 6.52223 34.3449 5.50317 34.3302 5.26329C34.3134 4.99127 34.156 4.75032 33.9199 4.63417C33.6828 4.51881 33.4051 4.54615 33.1942 4.70609C31.6934 5.84452 30.1992 6.09249 29.301 6.12018C27.9069 4.73601 26.0994 3.97729 24.1774 3.97729C20.0457 3.97729 16.6842 7.53284 16.6842 11.903C16.6842 12.2568 16.7066 12.6099 16.7507 12.9601C9.6972 12.8347 3.97236 5.78649 3.91327 5.71235C3.76355 5.52506 3.53623 5.42316 3.30117 5.44656C3.06823 5.46774 2.85942 5.6065 2.7426 5.8179C0.754252 9.41911 1.96893 12.5967 3.18853 14.5005C3.0626 14.4223 2.95943 14.3504 2.88882 14.296C2.67337 14.1288 2.38586 14.101 2.1449 14.2248C1.90353 14.349 1.74928 14.6031 1.74476 14.8838C1.69088 18.3371 3.23673 20.3577 4.7387 21.5027C4.5761 21.5261 4.42357 21.6071 4.30915 21.7371C4.13709 21.9321 4.07656 22.2077 4.15073 22.4615C5.19231 26.0207 7.71825 27.2814 9.38625 27.7276C6.01212 30.3853 1.12183 29.5179 1.0676 29.5072C0.743352 29.4477 0.418827 29.6262 0.285562 29.9424C0.15264 30.2583 0.243608 30.6285 0.506642 30.8377C4.10315 33.7032 8.40452 34.3381 11.5113 34.3381C13.8607 34.3381 15.5266 33.9747 15.6868 33.9386C31.359 30.0614 31.8557 15.113 31.8235 12.5655C34.7636 9.70808 35.226 8.6113 35.298 8.3385C35.3792 8.02978 35.2631 7.70116 35.0091 7.52111ZM30.6129 11.6974C30.4532 11.8508 30.3689 12.072 30.3835 12.2984C30.386 12.3385 30.6259 16.3903 28.8964 20.905C26.5855 26.9371 22.0299 30.8326 15.3706 32.4801C15.2992 32.4957 9.13885 33.8277 3.73099 31.1426C6.0429 31.0414 9.24456 30.3617 11.4974 27.7215C11.6856 27.5013 11.7303 27.1609 11.6145 26.8918C11.4988 26.6235 11.2417 26.426 10.9598 26.426C10.9584 26.426 10.957 26.426 10.9549 26.426C10.7657 26.426 7.50423 26.4004 5.94151 23.1122C6.57349 23.1406 7.32901 23.1018 7.93789 22.8089C8.2184 22.6738 8.38416 22.3724 8.34954 22.0522C8.31492 21.732 8.0876 21.4741 7.78536 21.4076C7.61014 21.3689 3.8334 20.489 3.25112 16.2055C3.83135 16.4578 4.55464 16.6532 5.27409 16.5407C5.55042 16.4976 5.77671 16.2903 5.855 16.0102C5.93301 15.7306 5.84767 15.4284 5.63673 15.2367C5.47337 15.0886 1.91251 11.7821 3.54309 7.5098C5.47337 9.60889 10.9782 14.8356 17.6534 14.4361C17.8663 14.4233 18.0629 14.3116 18.1894 14.132C18.3158 13.9524 18.3588 13.7234 18.3067 13.5074C18.1807 12.9838 18.1168 12.4442 18.1168 11.9031C18.1168 8.3574 20.8354 5.4729 24.1774 5.4729C25.8118 5.4729 27.3447 6.15382 28.4941 7.3905C28.6259 7.53256 28.8064 7.61392 28.996 7.61765C29.6581 7.62423 30.7483 7.54973 31.9802 7.0714C31.6128 7.52046 31.0991 8.04624 30.3807 8.6352C30.1324 8.83894 30.0411 9.18875 30.1561 9.49582C30.2716 9.80362 30.5713 9.9982 30.8805 9.96864C31.0252 9.95662 31.7272 9.892 32.5498 9.71781C32.0785 10.2409 31.45 10.8938 30.6129 11.6974Z" fill="#77D3F5"/>
</g>
<defs>
<clipPath id="clip0">
<rect width="35.0986" height="36.6404" fill="white" transform="translate(0.224976 0.837646)"/>
</clipPath>
</defs>
</svg>
